PowerhouseFilar-BoldItalic.ufo
<glyph name="exclam" format="2">
  <advance width="255"/>
  <unicode hex="0021"/>
  <outline>
    <contour>
      <point x="286" y="700" type="line"/>
      <point x="127" y="700" type="line"/>
      <point x="77" y="217" type="line"/>
      <point x="166" y="217" type="line"/>
    </contour>
    <component base="period" xScale="-1" yScale="-1" xOffset="198" yOffset="149"/>
  </outline>
</glyph>
<glyph name="numbersign" format="2">
  <advance width="671"/>
  <unicode hex="0023"/>
  <outline>
    <contour>
      <point x="435" y="700" type="line"/>
      <point x="308" y="700" type="line"/>
      <point x="18" y="0" type="line"/>
      <point x="145" y="0" type="line"/>
    </contour>
    <contour>
      <point x="701" y="539" type="line"/>
      <point x="116" y="539" type="line"/>
      <point x="96" y="425" type="line"/>
      <point x="681" y="425" type="line"/>
    </contour>
    <contour>
      <point x="673" y="700" type="line"/>
      <point x="546" y="700" type="line"/>
      <point x="256" y="0" type="line"/>
      <point x="383" y="0" type="line"/>
    </contour>
    <contour>
      <point x="609" y="303" type="line"/>
      <point x="24" y="303" type="line"/>
      <point x="4" y="189" type="line"/>
      <point x="589" y="189" type="line"/>
    </contour>
  </outline>
</glyph>
<glyph name="dollar" format="2">
  <advance width="551"/>
  <unicode hex="0024"/>
  <outline>
    <contour>
      <point x="12" y="220" type="curve"/>
      <point x="157" y="209" type="line"/>
      <point x="157" y="206"/>
      <point x="157" y="204"/>
      <point x="157" y="202" type="curve" smooth="yes"/>
      <point x="157" y="139"/>
      <point x="195" y="105"/>
      <point x="271" y="105" type="curve" smooth="yes"/>
      <point x="355" y="105"/>
      <point x="385" y="152"/>
      <point x="385" y="196" type="curve" smooth="yes"/>
      <point x="385" y="237"/>
      <point x="360" y="257"/>
      <point x="309" y="276" type="curve" smooth="yes"/>
      <point x="218" y="310" type="line" smooth="yes"/>
      <point x="129" y="343"/>
      <point x="76" y="399"/>
      <point x="76" y="487" type="curve" smooth="yes"/>
      <point x="76" y="599"/>
      <point x="169" y="712"/>
      <point x="342" y="712" type="curve" smooth="yes"/>
      <point x="494" y="712"/>
      <point x="568" y="621"/>
      <point x="568" y="519" type="curve" smooth="yes"/>
      <point x="568" y="513"/>
      <point x="568" y="511"/>
      <point x="567" y="504" type="curve"/>
      <point x="424" y="515" type="line"/>
      <point x="424" y="567"/>
      <point x="388" y="595"/>
      <point x="328" y="595" type="curve" smooth="yes"/>
      <point x="248" y="595"/>
      <point x="220" y="551"/>
      <point x="220" y="513" type="curve" smooth="yes"/>
      <point x="220" y="479"/>
      <point x="238" y="459"/>
      <point x="304" y="434" type="curve" smooth="yes"/>
      <point x="395" y="400" type="line" smooth="yes"/>
      <point x="480" y="368"/>
      <point x="532" y="309"/>
      <point x="532" y="221" type="curve" smooth="yes"/>
      <point x="532" y="106"/>
      <point x="444" y="-12"/>
      <point x="258" y="-12" type="curve" smooth="yes"/>
      <point x="89" y="-12"/>
      <point x="11" y="77"/>
      <point x="11" y="196" type="curve" smooth="yes"/>
      <point x="11" y="206"/>
      <point x="11" y="211"/>
    </contour>
    <contour>
      <point x="166" y="-112" type="line"/>
      <point x="248" y="352" type="line"/>
      <point x="256" y="384" type="line"/>
      <point x="329" y="797" type="line"/>
      <point x="423" y="797" type="line"/>
      <point x="347" y="366" type="line"/>
      <point x="340" y="341" type="line"/>
      <point x="260" y="-112" type="line"/>
    </contour>
  </outline>
</glyph>
<glyph name="quotesingle" format="2">
  <advance width="249"/>
  <unicode hex="0027"/>
  <outline>
    <contour>
      <point x="122" y="700" type="line"/>
      <point x="88" y="364" type="line"/>
      <point x="194" y="364" type="line"/>
      <point x="280" y="700" type="line"/>
    </contour>
  </outline>
</glyph>
<glyph name="asterisk" format="2">
  <advance width="430"/>
  <unicode hex="002A"/>
  <outline>
    <contour>
      <point x="341" y="700" type="line"/>
      <point x="243" y="700" type="line"/>
      <point x="205" y="486" type="line"/>
      <point x="303" y="486" type="line"/>
    </contour>
    <contour>
      <point x="92" y="609" type="line"/>
      <point x="49" y="521" type="line"/>
      <point x="237" y="456" type="line"/>
      <point x="280" y="545" type="line"/>
    </contour>
    <contour>
      <point x="473" y="512" type="line"/>
      <point x="459" y="603" type="line"/>
      <point x="249" y="539" type="line"/>
      <point x="263" y="447" type="line"/>
    </contour>
    <contour>
      <point x="65" y="352" type="line"/>
      <point x="138" y="291" type="line"/>
      <point x="291" y="460" type="line"/>
      <point x="217" y="521" type="line"/>
    </contour>
    <contour>
      <point x="307" y="291" type="line"/>
      <point x="391" y="346" type="line"/>
      <point x="298" y="517" type="line"/>
      <point x="213" y="462" type="line"/>
    </contour>
  </outline>
</glyph>
<glyph name="hyphen" format="2">
  <advance width="384"/>
  <unicode hex="002D"/>
  <outline>
    <contour>
      <point x="50" y="227" type="line"/>
      <point x="326" y="227" type="line"/>
      <point x="350" y="365" type="line"/>
      <point x="74" y="365" type="line"/>
    </contour>
  </outline>
</glyph>
<glyph name="period" format="2">
  <advance width="265"/>
  <unicode hex="002E"/>
  <outline>
    <contour>
      <point x="41" y="149" type="line"/>
      <point x="15" y="0" type="line"/>
      <point x="162" y="0" type="line"/>
      <point x="188" y="149" type="line"/>
    </contour>
  </outline>
</glyph>
<glyph name="one" format="2">
  <advance width="427"/>
  <unicode hex="0031"/>
  <outline>
    <contour>
      <point x="272" y="700" type="line"/>
      <point x="252" y="589"/>
      <point x="197" y="555"/>
      <point x="72" y="555" type="curve"/>
      <point x="54" y="450" type="line"/>
      <point x="300" y="450" type="line"/>
      <point x="233" y="540" type="line"/>
      <point x="137" y="0" type="line"/>
      <point x="280" y="0" type="line"/>
      <point x="404" y="700" type="line"/>
    </contour>
  </outline>
</glyph>
<glyph name="three" format="2">
  <advance width="566"/>
  <unicode hex="0033"/>
  <outline>
    <contour>
      <point x="36" y="237" type="line"/>
      <point x="30" y="213"/>
      <point x="27" y="191"/>
      <point x="27" y="171" type="curve" smooth="yes"/>
      <point x="27" y="46"/>
      <point x="134" y="-12"/>
      <point x="261" y="-12" type="curve" smooth="yes"/>
      <point x="440" y="-12"/>
      <point x="538" y="101"/>
      <point x="538" y="219" type="curve" smooth="yes"/>
      <point x="538" y="298"/>
      <point x="492" y="350"/>
      <point x="418" y="367" type="curve"/>
      <point x="417" y="361" type="line"/>
      <point x="489" y="377"/>
      <point x="575" y="432"/>
      <point x="575" y="535" type="curve" smooth="yes"/>
      <point x="575" y="631"/>
      <point x="496" y="712"/>
      <point x="357" y="712" type="curve" smooth="yes"/>
      <point x="215" y="712"/>
      <point x="98" y="633"/>
      <point x="86" y="487" type="curve"/>
      <point x="228" y="495" type="line"/>
      <point x="231" y="554"/>
      <point x="274" y="596"/>
      <point x="341" y="596" type="curve" smooth="yes"/>
      <point x="397" y="596"/>
      <point x="430" y="565"/>
      <point x="430" y="519" type="curve" smooth="yes"/>
      <point x="430" y="470"/>
      <point x="395" y="422"/>
      <point x="325" y="422" type="curve" smooth="yes"/>
      <point x="263" y="422" type="line"/>
      <point x="242" y="303" type="line"/>
      <point x="300" y="303" type="line" smooth="yes"/>
      <point x="370" y="303"/>
      <point x="395" y="268"/>
      <point x="395" y="222" type="curve" smooth="yes"/>
      <point x="395" y="161"/>
      <point x="350" y="105"/>
      <point x="272" y="105" type="curve" smooth="yes"/>
      <point x="205" y="105"/>
      <point x="170" y="143"/>
      <point x="170" y="188" type="curve" smooth="yes"/>
      <point x="170" y="197"/>
      <point x="172" y="207"/>
      <point x="174" y="216" type="curve"/>
    </contour>
  </outline>
</glyph>
<glyph name="six" format="2">
  <advance width="575"/>
  <unicode hex="0036"/>
  <outline>
    <contour>
      <point x="36" y="69"/>
      <point x="116" y="-12"/>
      <point x="262" y="-12" type="curve" smooth="yes"/>
      <point x="462" y="-12"/>
      <point x="548" y="142"/>
      <point x="548" y="273" type="curve" smooth="yes"/>
      <point x="548" y="394"/>
      <point x="469" y="467"/>
      <point x="360" y="467" type="curve" smooth="yes"/>
      <point x="266" y="467"/>
      <point x="173" y="411"/>
      <point x="140" y="311" type="curve"/>
      <point x="187" y="309" type="line"/>
      <point x="198" y="373" type="line" smooth="yes"/>
      <point x="222" y="506"/>
      <point x="303" y="596"/>
      <point x="382" y="596" type="curve" smooth="yes"/>
      <point x="423" y="596"/>
      <point x="455" y="572"/>
      <point x="455" y="528" type="curve" smooth="yes"/>
      <point x="455" y="525"/>
      <point x="455" y="522"/>
      <point x="455" y="519" type="curve"/>
      <point x="586" y="495" type="line"/>
      <point x="588" y="508"/>
      <point x="589" y="521"/>
      <point x="589" y="533" type="curve" smooth="yes"/>
      <point x="589" y="636"/>
      <point x="524" y="712"/>
      <point x="400" y="712" type="curve" smooth="yes"/>
      <point x="237" y="712"/>
      <point x="91" y="582"/>
      <point x="49" y="340" type="curve" smooth="yes"/>
      <point x="40" y="293"/>
      <point x="36" y="252"/>
      <point x="36" y="217" type="curve" smooth="yes"/>
    </contour>
    <contour>
      <point x="213" y="105"/>
      <point x="178" y="146"/>
      <point x="178" y="207" type="curve" smooth="yes"/>
      <point x="178" y="285"/>
      <point x="231" y="355"/>
      <point x="311" y="355" type="curve" smooth="yes"/>
      <point x="373" y="355"/>
      <point x="404" y="314"/>
      <point x="404" y="253" type="curve" smooth="yes"/>
      <point x="404" y="176"/>
      <point x="355" y="105"/>
      <point x="275" y="105" type="curve" smooth="yes"/>
    </contour>
  </outline>
</glyph>
<glyph name="nine" format="2">
  <advance width="575"/>
  <unicode hex="0039"/>
  <outline>
    <contour>
      <point x="574" y="634"/>
      <point x="491" y="712"/>
      <point x="346" y="712" type="curve" smooth="yes"/>
      <point x="163" y="712"/>
      <point x="61" y="565"/>
      <point x="61" y="432" type="curve" smooth="yes"/>
      <point x="61" y="304"/>
      <point x="147" y="232"/>
      <point x="258" y="232" type="curve" smooth="yes"/>
      <point x="351" y="232"/>
      <point x="439" y="289"/>
      <point x="472" y="390" type="curve"/>
      <point x="427" y="392" type="line"/>
      <point x="416" y="328" type="line" smooth="yes"/>
      <point x="393" y="200"/>
      <point x="346" y="98"/>
      <point x="248" y="98" type="curve" smooth="yes"/>
      <point x="197" y="98"/>
      <point x="165" y="126"/>
      <point x="165" y="175" type="curve" smooth="yes"/>
      <point x="165" y="178"/>
      <point x="165" y="180"/>
      <point x="165" y="183" type="curve"/>
      <point x="18" y="218" type="line"/>
      <point x="16" y="205"/>
      <point x="16" y="193"/>
      <point x="16" y="181" type="curve" smooth="yes"/>
      <point x="16" y="66"/>
      <point x="91" y="-11"/>
      <point x="234" y="-11" type="curve" smooth="yes"/>
      <point x="421" y="-11"/>
      <point x="518" y="114"/>
      <point x="560" y="354" type="curve" smooth="yes"/>
      <point x="569" y="404"/>
      <point x="574" y="447"/>
      <point x="574" y="484" type="curve" smooth="yes"/>
    </contour>
    <contour>
      <point x="390" y="595"/>
      <point x="432" y="563"/>
      <point x="432" y="495" type="curve" smooth="yes"/>
      <point x="432" y="419"/>
      <point x="381" y="347"/>
      <point x="301" y="347" type="curve" smooth="yes"/>
      <point x="245" y="347"/>
      <point x="205" y="380"/>
      <point x="205" y="448" type="curve" smooth="yes"/>
      <point x="205" y="524"/>
      <point x="254" y="595"/>
      <point x="334" y="595" type="curve" smooth="yes"/>
    </contour>
  </outline>
</glyph>
<glyph name="less" format="2">
  <advance width="576"/>
  <unicode hex="003C"/>
  <outline>
    <contour>
      <point x="69" y="402" type="line"/>
      <point x="47" y="279" type="line"/>
      <point x="496" y="55" type="line"/>
      <point x="517" y="179" type="line"/>
      <point x="129" y="372" type="line"/>
      <point x="115" y="293" type="line"/>
      <point x="571" y="486" type="line"/>
      <point x="596" y="626" type="line"/>
    </contour>
  </outline>
</glyph>
<glyph name="equal" format="2">
  <advance width="576"/>
  <unicode hex="003D"/>
  <outline>
    <contour>
      <point x="557" y="392" type="line"/>
      <point x="578" y="512" type="line"/>
      <point x="90" y="512" type="line"/>
      <point x="69" y="392" type="line"/>
    </contour>
    <contour>
      <point x="517" y="168" type="line"/>
      <point x="538" y="288" type="line"/>
      <point x="50" y="288" type="line"/>
      <point x="29" y="168" type="line"/>
    </contour>
  </outline>
</glyph>
<glyph name="question" format="2">
  <advance width="481"/>
  <unicode hex="003F"/>
  <outline>
    <contour>
      <point x="155" y="217" type="line"/>
      <point x="288" y="217" type="line"/>
      <point x="291" y="233" type="line" smooth="yes"/>
      <point x="300" y="279"/>
      <point x="320" y="305"/>
      <point x="373" y="339" type="curve" smooth="yes"/>
      <point x="445" y="386"/>
      <point x="515" y="443"/>
      <point x="515" y="550" type="curve" smooth="yes"/>
      <point x="515" y="648"/>
      <point x="444" y="712"/>
      <point x="315" y="712" type="curve" smooth="yes"/>
      <point x="186" y="712"/>
      <point x="92" y="639"/>
      <point x="54" y="524" type="curve"/>
      <point x="186" y="491" type="line"/>
      <point x="204" y="552"/>
      <point x="235" y="591"/>
      <point x="295" y="591" type="curve" smooth="yes"/>
      <point x="344" y="591"/>
      <point x="369" y="565"/>
      <point x="369" y="527" type="curve" smooth="yes"/>
      <point x="369" y="488"/>
      <point x="343" y="461"/>
      <point x="274" y="414" type="curve" smooth="yes"/>
      <point x="196" y="360"/>
      <point x="178" y="326"/>
      <point x="161" y="246" type="curve" smooth="yes"/>
    </contour>
    <component base="period" xOffset="96"/>
  </outline>
</glyph>
<glyph name="at" format="2">
  <advance width="862"/>
  <unicode hex="0040"/>
  <outline>
    <contour>
      <point x="368" y="367"/>
      <point x="328" y="278"/>
      <point x="328" y="213" type="curve" smooth="yes"/>
      <point x="328" y="166"/>
      <point x="350" y="142"/>
      <point x="388" y="142" type="curve" smooth="yes"/>
      <point x="461" y="142"/>
      <point x="502" y="231"/>
      <point x="502" y="296" type="curve" smooth="yes"/>
      <point x="502" y="343"/>
      <point x="479" y="367"/>
      <point x="441" y="367" type="curve" smooth="yes"/>
    </contour>
    <contour>
      <point x="465" y="129" type="curve"/>
      <point x="492" y="128" type="line"/>
      <point x="457" y="78"/>
      <point x="408" y="52"/>
      <point x="354" y="52" type="curve" smooth="yes"/>
      <point x="277" y="52"/>
      <point x="219" y="105"/>
      <point x="219" y="197" type="curve" smooth="yes"/>
      <point x="219" y="323"/>
      <point x="314" y="457"/>
      <point x="437" y="457" type="curve" smooth="yes"/>
      <point x="497" y="457"/>
      <point x="538" y="425"/>
      <point x="545" y="375" type="curve"/>
      <point x="528" y="375" type="line"/>
      <point x="549" y="451" type="line"/>
      <point x="654" y="451" type="line"/>
      <point x="582" y="200" type="line" smooth="yes"/>
      <point x="579" y="188"/>
      <point x="578" y="182"/>
      <point x="578" y="177" type="curve" smooth="yes"/>
      <point x="578" y="156"/>
      <point x="594" y="146"/>
      <point x="617" y="146" type="curve" smooth="yes"/>
      <point x="693" y="146"/>
      <point x="745" y="248"/>
      <point x="745" y="352" type="curve" smooth="yes"/>
      <point x="745" y="502"/>
      <point x="629" y="557"/>
      <point x="506" y="557" type="curve" smooth="yes"/>
      <point x="282" y="557"/>
      <point x="120" y="383"/>
      <point x="120" y="171" type="curve" smooth="yes"/>
      <point x="120" y="36"/>
      <point x="201" y="-49"/>
      <point x="375" y="-49" type="curve" smooth="yes"/>
      <point x="459" y="-49"/>
      <point x="534" y="-27"/>
      <point x="600" y="4" type="curve"/>
      <point x="621" y="-79" type="line"/>
      <point x="546" y="-119"/>
      <point x="456" y="-140"/>
      <point x="365" y="-140" type="curve" smooth="yes"/>
      <point x="140" y="-140"/>
      <point x="24" y="-21"/>
      <point x="24" y="162" type="curve" smooth="yes"/>
      <point x="24" y="440"/>
      <point x="232" y="646"/>
      <point x="518" y="646" type="curve" smooth="yes"/>
      <point x="695" y="646"/>
      <point x="841" y="548"/>
      <point x="841" y="363" type="curve" smooth="yes"/>
      <point x="841" y="170"/>
      <point x="737" y="52"/>
      <point x="582" y="52" type="curve" smooth="yes"/>
      <point x="517" y="52"/>
      <point x="469" y="77"/>
    </contour>
  </outline>
</glyph>
<glyph name="B" format="2">
  <advance width="706"/>
  <unicode hex="0042"/>
  <guideline x="333.1357254290173" y="1.5620124804994755" angle="90" name="center" identifier="YlB84gsj3O"/>
  <outline>
    <contour>
      <point x="147" y="700" type="line"/>
      <point x="23" y="0" type="line"/>
      <point x="172" y="0" type="line"/>
      <point x="296" y="700" type="line"/>
    </contour>
    <contour>
      <point x="386" y="0" type="line" smooth="yes"/>
      <point x="570" y="0"/>
      <point x="667" y="121"/>
      <point x="667" y="233" type="curve" smooth="yes"/>
      <point x="667" y="308"/>
      <point x="622" y="347"/>
      <point x="574" y="370" type="curve"/>
      <point x="571" y="352" type="line"/>
      <point x="639" y="370"/>
      <point x="704" y="433"/>
      <point x="704" y="531" type="curve" smooth="yes"/>
      <point x="704" y="628"/>
      <point x="639" y="700"/>
      <point x="510" y="700" type="curve" smooth="yes"/>
      <point x="211" y="700" type="line"/>
      <point x="189" y="577" type="line"/>
      <point x="477" y="577" type="line" smooth="yes"/>
      <point x="524" y="577"/>
      <point x="557" y="556"/>
      <point x="557" y="511" type="curve" smooth="yes"/>
      <point x="557" y="469"/>
      <point x="526" y="420"/>
      <point x="453" y="420" type="curve" smooth="yes"/>
      <point x="160" y="420" type="line"/>
      <point x="139" y="298" type="line"/>
      <point x="429" y="298" type="line" smooth="yes"/>
      <point x="475" y="298"/>
      <point x="517" y="277"/>
      <point x="517" y="223" type="curve" smooth="yes"/>
      <point x="517" y="160"/>
      <point x="464" y="123"/>
      <point x="400" y="123" type="curve" smooth="yes"/>
      <point x="109" y="123" type="line"/>
      <point x="87" y="0" type="line"/>
    </contour>
  </outline>
</glyph>
<glyph name="F" format="2">
  <advance width="626"/>
  <unicode hex="0046"/>
  <outline>
    <contour>
      <point x="147" y="700" type="line"/>
      <point x="23" y="0" type="line"/>
      <point x="174" y="0" type="line"/>
      <point x="298" y="700" type="line"/>
    </contour>
    <contour>
      <point x="186" y="576" type="line"/>
      <point x="670" y="576" type="line"/>
      <point x="692" y="700" type="line"/>
      <point x="208" y="700" type="line"/>
    </contour>
    <contour>
      <point x="145" y="285" type="line"/>
      <point x="545" y="285" type="line"/>
      <point x="566" y="409" type="line"/>
      <point x="166" y="409" type="line"/>
    </contour>
  </outline>
</glyph>
<glyph name="G" format="2">
  <advance width="789"/>
  <unicode hex="0047"/>
  <guideline x="399" y="700" angle="90" name="center" identifier="3Ta8E1ingc"/>
  <outline>
    <contour>
      <point x="567" y="144" type="line"/>
      <point x="541" y="0" type="line"/>
      <point x="663" y="0" type="line"/>
      <point x="731" y="382" type="line"/>
      <point x="443" y="382" type="line"/>
      <point x="423" y="268" type="line"/>
      <point x="632" y="268" type="line"/>
      <point x="597" y="303" type="line"/>
      <point x="593" y="282" type="line" smooth="yes"/>
      <point x="575" y="174"/>
      <point x="483" y="114"/>
      <point x="380" y="114" type="curve" smooth="yes"/>
      <point x="272" y="114"/>
      <point x="201" y="180"/>
      <point x="201" y="303" type="curve" smooth="yes"/>
      <point x="201" y="443"/>
      <point x="290" y="584"/>
      <point x="443" y="584" type="curve" smooth="yes"/>
      <point x="527" y="584"/>
      <point x="591" y="541"/>
      <point x="603" y="459" type="curve"/>
      <point x="738" y="494" type="line"/>
      <point x="716" y="611"/>
      <point x="626" y="711"/>
      <point x="458" y="711" type="curve" smooth="yes"/>
      <point x="205" y="711"/>
      <point x="44" y="499"/>
      <point x="44" y="292" type="curve" smooth="yes"/>
      <point x="44" y="108"/>
      <point x="166" y="-12"/>
      <point x="338" y="-12" type="curve" smooth="yes"/>
      <point x="455" y="-12"/>
      <point x="559" y="45"/>
      <point x="606" y="135" type="curve"/>
    </contour>
  </outline>
</glyph>
<glyph name="H" format="2">
  <advance width="736"/>
  <unicode hex="0048"/>
  <anchor x="168" y="0" name="cedilla"/>
  <outline>
    <contour>
      <point x="139" y="299" type="line"/>
      <point x="616" y="299" type="line"/>
      <point x="638" y="423" type="line"/>
      <point x="161" y="423" type="line"/>
    </contour>
    <contour>
      <point x="598" y="700" type="line"/>
      <point x="474" y="0" type="line"/>
      <point x="625" y="0" type="line"/>
      <point x="749" y="700" type="line"/>
    </contour>
    <contour>
      <point x="147" y="700" type="line"/>
      <point x="23" y="0" type="line"/>
      <point x="174" y="0" type="line"/>
      <point x="298" y="700" type="line"/>
    </contour>
  </outline>
</glyph>
<glyph name="L" format="2">
  <advance width="630"/>
  <unicode hex="004C"/>
  <guideline x="142" y="700" angle="90" name="acute" identifier="V6HVXnwLb1"/>
  <anchor x="362" y="700" name="caronalt"/>
  <outline>
    <contour>
      <point x="147" y="700" type="line"/>
      <point x="298" y="700" type="line"/>
      <point x="174" y="0" type="line"/>
      <point x="23" y="0" type="line"/>
    </contour>
    <contour>
      <point x="84" y="0" type="line"/>
      <point x="106" y="124" type="line"/>
      <point x="569" y="124" type="line"/>
      <point x="547" y="0" type="line"/>
    </contour>
  </outline>
</glyph>
<glyph name="M" format="2">
  <advance width="896"/>
  <unicode hex="004D"/>
  <outline>
    <contour>
      <point x="237" y="613" type="line"/>
      <point x="372" y="0" type="line"/>
      <point x="435" y="0" type="line"/>
      <point x="785" y="612" type="line"/>
      <point x="748" y="612" type="line"/>
      <point x="640" y="0" type="line"/>
      <point x="785" y="0" type="line"/>
      <point x="909" y="700" type="line"/>
      <point x="697" y="700" type="line"/>
      <point x="387" y="156" type="line"/>
      <point x="468" y="156" type="line"/>
      <point x="347" y="700" type="line"/>
      <point x="147" y="700" type="line"/>
      <point x="23" y="0" type="line"/>
      <point x="167" y="0" type="line"/>
      <point x="275" y="613" type="line"/>
    </contour>
  </outline>
</glyph>
<glyph name="N" format="2">
  <advance width="774"/>
  <unicode hex="004E"/>
  <outline>
    <contour>
      <point x="606" y="118" type="line"/>
      <point x="335" y="700" type="line"/>
      <point x="147" y="700" type="line"/>
      <point x="23" y="0" type="line"/>
      <point x="169" y="0" type="line"/>
      <point x="272" y="580" type="line"/>
      <point x="237" y="580" type="line"/>
      <point x="507" y="0" type="line"/>
      <point x="663" y="0" type="line"/>
      <point x="787" y="700" type="line"/>
      <point x="642" y="700" type="line"/>
      <point x="539" y="118" type="line"/>
    </contour>
  </outline>
</glyph>
<glyph name="P" format="2">
  <advance width="650"/>
  <unicode hex="0050"/>
  <guideline x="334" y="700" angle="90" name="center" identifier="DliRjF6wWD"/>
  <outline>
    <contour>
      <point x="147" y="700" type="line"/>
      <point x="23" y="0" type="line"/>
      <point x="173" y="0" type="line"/>
      <point x="297" y="700" type="line"/>
    </contour>
    <contour>
      <point x="434" y="577" type="line" smooth="yes"/>
      <point x="492" y="577"/>
      <point x="522" y="551"/>
      <point x="522" y="504" type="curve" smooth="yes"/>
      <point x="522" y="456"/>
      <point x="491" y="407"/>
      <point x="404" y="407" type="curve" smooth="yes"/>
      <point x="168" y="407" type="line"/>
      <point x="146" y="284" type="line"/>
      <point x="397" y="284" type="line" smooth="yes"/>
      <point x="604" y="284"/>
      <point x="677" y="406"/>
      <point x="677" y="524" type="curve" smooth="yes"/>
      <point x="677" y="630"/>
      <point x="613" y="700"/>
      <point x="466" y="700" type="curve" smooth="yes"/>
      <point x="220" y="700" type="line"/>
      <point x="198" y="577" type="line"/>
    </contour>
  </outline>
</glyph>
<glyph name="R" format="2">
  <advance width="676"/>
  <unicode hex="0052"/>
  <guideline x="345" y="819" angle="90" name="center" identifier="q65qndc68b"/>
  <outline>
    <contour>
      <point x="147" y="700" type="line"/>
      <point x="23" y="0" type="line"/>
      <point x="173" y="0" type="line"/>
      <point x="297" y="700" type="line"/>
    </contour>
    <contour>
      <point x="300" y="308" type="line"/>
      <point x="340" y="214"/>
      <point x="422" y="79"/>
      <point x="479" y="0" type="curve"/>
      <point x="639" y="0" type="line"/>
      <point x="639" y="7" type="line"/>
      <point x="584" y="82"/>
      <point x="501" y="215"/>
      <point x="460" y="308" type="curve"/>
    </contour>
    <contour>
      <point x="421" y="399" type="curve" smooth="yes"/>
      <point x="166" y="399" type="line"/>
      <point x="144" y="277" type="line"/>
      <point x="416" y="277" type="line" smooth="yes"/>
      <point x="608" y="277"/>
      <point x="695" y="388"/>
      <point x="695" y="519" type="curve" smooth="yes"/>
      <point x="695" y="638"/>
      <point x="622" y="700"/>
      <point x="487" y="700" type="curve" smooth="yes"/>
      <point x="224" y="700" type="line"/>
      <point x="202" y="577" type="line"/>
      <point x="452" y="577" type="line" smooth="yes"/>
      <point x="508" y="577"/>
      <point x="538" y="552"/>
      <point x="538" y="503" type="curve" smooth="yes"/>
      <point x="538" y="444"/>
      <point x="495" y="399"/>
    </contour>
  </outline>
</glyph>
<glyph name="S" format="2">
  <advance width="654"/>
  <unicode hex="0053"/>
  <guideline x="324" y="712" angle="90" name="center" identifier="M5YQhG4xdn"/>
  <outline>
    <contour>
      <point x="15" y="246" type="line"/>
      <point x="13" y="233"/>
      <point x="13" y="221"/>
      <point x="13" y="209" type="curve" smooth="yes"/>
      <point x="13" y="76"/>
      <point x="126" y="-13"/>
      <point x="304" y="-13" type="curve" smooth="yes"/>
      <point x="515" y="-13"/>
      <point x="614" y="108"/>
      <point x="614" y="236" type="curve" smooth="yes"/>
      <point x="614" y="334"/>
      <point x="550" y="383"/>
      <point x="442" y="405" type="curve" smooth="yes"/>
      <point x="336" y="427" type="line" smooth="yes"/>
      <point x="253" y="444"/>
      <point x="233" y="467"/>
      <point x="233" y="499" type="curve" smooth="yes"/>
      <point x="233" y="546"/>
      <point x="275" y="592"/>
      <point x="362" y="592" type="curve" smooth="yes"/>
      <point x="445" y="592"/>
      <point x="486" y="549"/>
      <point x="486" y="496" type="curve" smooth="yes"/>
      <point x="486" y="493"/>
      <point x="486" y="491"/>
      <point x="486" y="488" type="curve"/>
      <point x="644" y="480" type="line"/>
      <point x="645" y="488"/>
      <point x="645" y="495"/>
      <point x="645" y="503" type="curve" smooth="yes"/>
      <point x="645" y="618"/>
      <point x="548" y="712"/>
      <point x="380" y="712" type="curve" smooth="yes"/>
      <point x="192" y="712"/>
      <point x="74" y="605"/>
      <point x="74" y="468" type="curve" smooth="yes"/>
      <point x="74" y="368"/>
      <point x="145" y="323"/>
      <point x="258" y="299" type="curve" smooth="yes"/>
      <point x="364" y="276" type="line" smooth="yes"/>
      <point x="433" y="261"/>
      <point x="454" y="240"/>
      <point x="454" y="205" type="curve" smooth="yes"/>
      <point x="454" y="151"/>
      <point x="403" y="107"/>
      <point x="314" y="107" type="curve" smooth="yes"/>
      <point x="222.65789473684208" y="107.0"/>
      <point x="172" y="153"/>
      <point x="174" y="233" type="curve"/>
    </contour>
  </outline>
</glyph>
<glyph name="T" format="2">
  <advance width="675"/>
  <unicode hex="0054"/>
  <outline>
    <contour>
      <point x="333" y="651" type="line"/>
      <point x="218" y="0" type="line"/>
      <point x="369" y="0" type="line"/>
      <point x="484" y="651" type="line"/>
    </contour>
    <contour>
      <point x="76" y="576" type="line"/>
      <point x="715" y="576" type="line"/>
      <point x="737" y="700" type="line"/>
      <point x="98" y="700" type="line"/>
    </contour>
  </outline>
</glyph>
<glyph name="X" format="2">
  <advance width="670"/>
  <unicode hex="0058"/>
  <outline>
    <contour>
      <point x="91" y="700" type="line"/>
      <point x="279" y="344" type="line"/>
      <point x="300" y="329" type="line"/>
      <point x="472" y="0" type="line"/>
      <point x="639" y="0" type="line"/>
      <point x="429" y="394" type="line"/>
      <point x="406" y="402" type="line"/>
      <point x="259" y="700" type="line"/>
    </contour>
    <contour>
      <point x="743" y="700" type="line"/>
      <point x="568" y="700" type="line"/>
      <point x="309" y="398" type="line"/>
      <point x="286" y="387" type="line"/>
      <point x="-53" y="0" type="line"/>
      <point x="126" y="0" type="line"/>
      <point x="412" y="333" type="line"/>
      <point x="434" y="346" type="line"/>
    </contour>
  </outline>
</glyph>
<glyph name="Z" format="2">
  <advance width="646"/>
  <unicode hex="005A"/>
  <outline>
    <contour>
      <point x="-5" y="0" type="line"/>
      <point x="563" y="0" type="line"/>
      <point x="585" y="124" type="line"/>
      <point x="95" y="124" type="line"/>
      <point x="167" y="60" type="line"/>
      <point x="663" y="602" type="line"/>
      <point x="681" y="700" type="line"/>
      <point x="117" y="700" type="line"/>
      <point x="95" y="576" type="line"/>
      <point x="586" y="576" type="line"/>
      <point x="493" y="623" type="line"/>
      <point x="13" y="99" type="line"/>
    </contour>
  </outline>
</glyph>
<glyph name="bracketleft" format="2">
  <advance width="352"/>
  <unicode hex="005B"/>
  <outline>
    <contour>
      <point x="8" y="-113" type="line"/>
      <point x="273" y="-113" type="line"/>
      <point x="292" y="-6" type="line"/>
      <point x="172" y="-6" type="line"/>
      <point x="286" y="638" type="line"/>
      <point x="406" y="638" type="line"/>
      <point x="425" y="745" type="line"/>
      <point x="160" y="745" type="line"/>
    </contour>
  </outline>
</glyph>
<glyph name="underscore" format="2">
  <advance width="426"/>
  <unicode hex="005F"/>
  <outline>
    <contour>
      <point x="-66" y="-161" type="line"/>
      <point x="344" y="-161" type="line"/>
      <point x="364" y="-49" type="line"/>
      <point x="-46" y="-49" type="line"/>
    </contour>
  </outline>
</glyph>
<glyph name="a" format="2">
  <advance width="535"/>
  <unicode hex="0061"/>
  <anchor x="510" y="-4" name="ogonek"/>
  <outline>
    <contour>
      <point x="326" y="97" type="line"/>
      <point x="325" y="90"/>
      <point x="325" y="83"/>
      <point x="325" y="76" type="curve" smooth="yes"/>
      <point x="325" y="5"/>
      <point x="381" y="-7"/>
      <point x="446" y="-7" type="curve" smooth="yes"/>
      <point x="455" y="-7"/>
      <point x="465" y="-6"/>
      <point x="472" y="-5" type="curve"/>
      <point x="490" y="100" type="line"/>
      <point x="487" y="100"/>
      <point x="486" y="100"/>
      <point x="482" y="100" type="curve" smooth="yes"/>
      <point x="467" y="100"/>
      <point x="458" y="107"/>
      <point x="458" y="124" type="curve" smooth="yes"/>
      <point x="458" y="127"/>
      <point x="458" y="129"/>
      <point x="459" y="134" type="curve" smooth="yes"/>
      <point x="495" y="338" type="line" smooth="yes"/>
      <point x="497" y="350"/>
      <point x="498" y="362"/>
      <point x="498" y="373" type="curve" smooth="yes"/>
      <point x="498" y="461"/>
      <point x="426" y="512"/>
      <point x="298" y="512" type="curve" smooth="yes"/>
      <point x="153" y="512"/>
      <point x="83" y="432"/>
      <point x="65" y="357" type="curve"/>
      <point x="199" y="328" type="line"/>
      <point x="209" y="374"/>
      <point x="230" y="405"/>
      <point x="289" y="405" type="curve" smooth="yes"/>
      <point x="335" y="405"/>
      <point x="358" y="386"/>
      <point x="358" y="353" type="curve" smooth="yes"/>
      <point x="358" y="347"/>
      <point x="357" y="340"/>
      <point x="356" y="333" type="curve" smooth="yes"/>
      <point x="330" y="183" type="line" smooth="yes"/>
      <point x="320" y="129"/>
      <point x="269" y="91"/>
      <point x="213" y="91" type="curve" smooth="yes"/>
      <point x="172" y="91"/>
      <point x="148" y="112"/>
      <point x="148" y="145" type="curve" smooth="yes"/>
      <point x="148" y="179"/>
      <point x="175" y="205"/>
      <point x="250" y="211" type="curve" smooth="yes"/>
      <point x="407" y="223" type="line"/>
      <point x="424" y="317" type="line"/>
      <point x="207" y="301" type="line" smooth="yes"/>
      <point x="84" y="292"/>
      <point x="7" y="226"/>
      <point x="7" y="127" type="curve" smooth="yes"/>
      <point x="7" y="41"/>
      <point x="72" y="-12"/>
      <point x="170" y="-12" type="curve" smooth="yes"/>
      <point x="255" y="-12"/>
      <point x="315" y="29"/>
      <point x="361" y="96" type="curve"/>
    </contour>
  </outline>
</glyph>
<glyph name="c" format="2">
  <advance width="530"/>
  <unicode hex="0063"/>
  <outline>
    <contour>
      <point x="529" y="341" type="line"/>
      <point x="521" y="441"/>
      <point x="438" y="512"/>
      <point x="318" y="512" type="curve" smooth="yes"/>
      <point x="137.0" y="512.0"/>
      <point x="28" y="356"/>
      <point x="28" y="205" type="curve" smooth="yes"/>
      <point x="28" y="69.0"/>
      <point x="114" y="-12"/>
      <point x="251" y="-12" type="curve" smooth="yes"/>
      <point x="359" y="-12"/>
      <point x="455" y="42"/>
      <point x="497" y="139" type="curve"/>
      <point x="367" y="178" type="line"/>
      <point x="343" y="121"/>
      <point x="308" y="102"/>
      <point x="264" y="102" type="curve" smooth="yes"/>
      <point x="207.0" y="102.0"/>
      <point x="169" y="134"/>
      <point x="169" y="210" type="curve" smooth="yes"/>
      <point x="169.0" y="306.0"/>
      <point x="216" y="398"/>
      <point x="308" y="398" type="curve" smooth="yes"/>
      <point x="351.0" y="398.0"/>
      <point x="393" y="377"/>
      <point x="393" y="312" type="curve"/>
    </contour>
  </outline>
</glyph>
<glyph name="g" format="2">
  <advance width="579"/>
  <unicode hex="0067"/>
  <guideline x="284" y="598" angle="90" name="center" identifier="ldYxP6ZocU"/>
  <outline>
    <contour>
      <point x="208" y="127"/>
      <point x="173" y="168"/>
      <point x="173" y="233" type="curve" smooth="yes"/>
      <point x="173" y="311"/>
      <point x="221" y="397"/>
      <point x="306" y="397" type="curve" smooth="yes"/>
      <point x="364" y="397"/>
      <point x="399" y="356"/>
      <point x="399" y="291" type="curve" smooth="yes"/>
      <point x="399" y="213"/>
      <point x="351" y="127"/>
      <point x="266" y="127" type="curve" smooth="yes"/>
    </contour>
    <contour>
      <point x="486" y="4" type="curve" smooth="yes"/>
      <point x="573" y="500" type="line"/>
      <point x="433" y="500" type="line"/>
      <point x="411" y="375" type="line"/>
      <point x="444" y="374" type="line"/>
      <point x="425" y="464"/>
      <point x="367" y="512"/>
      <point x="279" y="512" type="curve" smooth="yes"/>
      <point x="133.0" y="512.0"/>
      <point x="31" y="368"/>
      <point x="31" y="218" type="curve" smooth="yes"/>
      <point x="31" y="93"/>
      <point x="107" y="13"/>
      <point x="210" y="13" type="curve" smooth="yes"/>
      <point x="288.0" y="13.0"/>
      <point x="355" y="57"/>
      <point x="402" y="140" type="curve"/>
      <point x="369" y="141" type="line"/>
      <point x="346" y="7" type="line" smooth="yes"/>
      <point x="335" y="-53"/>
      <point x="296" y="-86"/>
      <point x="235" y="-86" type="curve" smooth="yes"/>
      <point x="172" y="-86"/>
      <point x="146" y="-52"/>
      <point x="146" y="-8" type="curve"/>
      <point x="-3" y="-25" type="line"/>
      <point x="0" y="-117"/>
      <point x="70" y="-192"/>
      <point x="224" y="-192" type="curve" smooth="yes"/>
      <point x="363" y="-192"/>
      <point x="463" y="-126"/>
    </contour>
  </outline>
</glyph>
<glyph name="i" format="2">
  <advance width="250"/>
  <unicode hex="0069"/>
  <anchor x="169" y="0" name="ogonek"/>
  <outline>
    <contour>
      <point x="99" y="500.0" type="line"/>
      <point x="11" y="0.0" type="line"/>
      <point x="151" y="0.0" type="line"/>
      <point x="239" y="500.0" type="line"/>
    </contour>
    <contour>
      <point x="133" y="700.0" type="line"/>
      <point x="109" y="564.0" type="line"/>
      <point x="253" y="564.0" type="line"/>
      <point x="277" y="700.0" type="line"/>
    </contour>
  </outline>
</glyph>
<glyph name="j" format="2">
  <advance width="250"/>
  <unicode hex="006A"/>
  <outline>
    <contour>
      <point x="138" y="-74" type="curve" smooth="yes"/>
      <point x="239" y="500" type="line"/>
      <point x="99" y="500" type="line"/>
      <point x="5" y="-35" type="line" smooth="yes"/>
      <point x="-1" y="-68"/>
      <point x="-13" y="-81"/>
      <point x="-41" y="-81" type="curve" smooth="yes"/>
      <point x="-50" y="-81"/>
      <point x="-58" y="-80"/>
      <point x="-72" y="-78" type="curve"/>
      <point x="-89" y="-180" type="line"/>
      <point x="-75" y="-185"/>
      <point x="-44" y="-190"/>
      <point x="-16" y="-190" type="curve" smooth="yes"/>
      <point x="49" y="-190"/>
      <point x="122" y="-163"/>
    </contour>
    <contour>
      <point x="133" y="700" type="line"/>
      <point x="109" y="564" type="line"/>
      <point x="253" y="564" type="line"/>
      <point x="277" y="700" type="line"/>
    </contour>
  </outline>
</glyph>
<glyph name="k" format="2">
  <advance width="534"/>
  <unicode hex="006B"/>
  <guideline x="267" y="68" angle="90" name="center" identifier="GGDAgUW7dH"/>
  <outline>
    <contour>
      <point x="6" y="0" type="line"/>
      <point x="146" y="0" type="line"/>
      <point x="270" y="700" type="line"/>
      <point x="130" y="700" type="line"/>
    </contour>
    <contour>
      <point x="129" y="259" type="line"/>
      <point x="101" y="93" type="line"/>
      <point x="279" y="248" type="line"/>
      <point x="321" y="271" type="line"/>
      <point x="583" y="500" type="line"/>
      <point x="405" y="500" type="line"/>
    </contour>
    <contour>
      <point x="208" y="263" type="line"/>
      <point x="345" y="0" type="line"/>
      <point x="495" y="0" type="line"/>
      <point x="315" y="347" type="line"/>
    </contour>
  </outline>
</glyph>
<glyph name="l" format="2">
  <advance width="250"/>
  <unicode hex="006C"/>
  <outline>
    <contour>
      <point x="135" y="700" type="line"/>
      <point x="11" y="0" type="line"/>
      <point x="151" y="0" type="line"/>
      <point x="275" y="700" type="line"/>
    </contour>
  </outline>
</glyph>
<glyph name="n" format="2">
  <advance width="556"/>
  <unicode hex="006E"/>
  <guideline x="280" y="490" angle="90" name="center" identifier="tKBUenALqP"/>
  <outline>
    <contour>
      <point x="94" y="500" type="line"/>
      <point x="6" y="0" type="line"/>
      <point x="146" y="0" type="line"/>
      <point x="198" y="293" type="line" smooth="yes"/>
      <point x="209" y="353"/>
      <point x="250" y="391"/>
      <point x="305" y="391" type="curve" smooth="yes"/>
      <point x="353.0" y="391.0"/>
      <point x="377.0" y="360.8502943324963"/>
      <point x="377" y="320" type="curve" smooth="yes"/>
      <point x="377" y="312"/>
      <point x="376" y="304"/>
      <point x="375" y="296" type="curve" smooth="yes"/>
      <point x="323" y="0" type="line"/>
      <point x="463" y="0" type="line"/>
      <point x="521" y="327" type="line" smooth="yes"/>
      <point x="524" y="342"/>
      <point x="525" y="355"/>
      <point x="525" y="369" type="curve" smooth="yes"/>
      <point x="525.0" y="454.9298874470276"/>
      <point x="466" y="512"/>
      <point x="375" y="512" type="curve" smooth="yes"/>
      <point x="290" y="512"/>
      <point x="232" y="460"/>
      <point x="195" y="405" type="curve"/>
      <point x="218" y="405" type="line"/>
      <point x="234" y="500" type="line"/>
    </contour>
  </outline>
</glyph>
<glyph name="o" format="2">
  <advance width="566"/>
  <unicode hex="006F"/>
  <note>
Reg to Bold
52 V
46 H
</note>
  <anchor x="352" y="501" name="horn"/>
  <outline>
    <contour>
      <point x="28" y="72"/>
      <point x="119" y="-12"/>
      <point x="250" y="-12" type="curve" smooth="yes"/>
      <point x="429.0" y="-12.0"/>
      <point x="538.0" y="138"/>
      <point x="538" y="293" type="curve" smooth="yes"/>
      <point x="538" y="428"/>
      <point x="447" y="512"/>
      <point x="316" y="512" type="curve" smooth="yes"/>
      <point x="137.0" y="512.0"/>
      <point x="28.0" y="362"/>
      <point x="28" y="207" type="curve" smooth="yes"/>
    </contour>
    <contour>
      <point x="363" y="396"/>
      <point x="397" y="359"/>
      <point x="397" y="286" type="curve" smooth="yes"/>
      <point x="397.0" y="202.0"/>
      <point x="354" y="104.0"/>
      <point x="261" y="104" type="curve" smooth="yes"/>
      <point x="203" y="104"/>
      <point x="169" y="141"/>
      <point x="169" y="214" type="curve" smooth="yes"/>
      <point x="169.0" y="298.0"/>
      <point x="212" y="396.0"/>
      <point x="305" y="396" type="curve" smooth="yes"/>
    </contour>
  </outline>
</glyph>
<glyph name="p" format="2">
  <advance width="584"/>
  <unicode hex="0070"/>
  <guideline x="310" y="490" angle="90" name="center" identifier="LykWhQVWpl"/>
  <outline>
    <contour>
      <point x="557" y="440"/>
      <point x="480" y="512"/>
      <point x="382" y="512" type="curve" smooth="yes"/>
      <point x="298" y="512"/>
      <point x="225" y="462"/>
      <point x="181" y="384" type="curve"/>
      <point x="214" y="383" type="line"/>
      <point x="234" y="500" type="line"/>
      <point x="94" y="500" type="line"/>
      <point x="-26" y="-180" type="line"/>
      <point x="114" y="-180" type="line"/>
      <point x="168" y="123" type="line"/>
      <point x="135" y="124" type="line"/>
      <point x="152" y="40"/>
      <point x="212" y="-13"/>
      <point x="303" y="-13" type="curve" smooth="yes"/>
      <point x="458" y="-13"/>
      <point x="557" y="146"/>
      <point x="557" y="309" type="curve" smooth="yes"/>
    </contour>
    <contour>
      <point x="217" y="104"/>
      <point x="181" y="144"/>
      <point x="181" y="214" type="curve" smooth="yes"/>
      <point x="181" y="303"/>
      <point x="225" y="396"/>
      <point x="317" y="396" type="curve" smooth="yes"/>
      <point x="376" y="396"/>
      <point x="413" y="358"/>
      <point x="413" y="287" type="curve" smooth="yes"/>
      <point x="413" y="198"/>
      <point x="368" y="104"/>
      <point x="276" y="104" type="curve" smooth="yes"/>
    </contour>
  </outline>
</glyph>
<glyph name="t" format="2">
  <advance width="363"/>
  <unicode hex="0074"/>
  <guideline x="203" y="692" angle="90" name="center" identifier="NDE2RZEQuj"/>
  <anchor x="229" y="679" name="right"/>
  <outline>
    <contour>
      <point x="29" y="393" type="line"/>
      <point x="362" y="393" type="line"/>
      <point x="380" y="500" type="line"/>
      <point x="47" y="500" type="line"/>
    </contour>
    <contour>
      <point x="69" y="142" type="line" smooth="yes"/>
      <point x="67" y="129"/>
      <point x="66" y="117"/>
      <point x="66" y="105" type="curve" smooth="yes"/>
      <point x="66" y="20"/>
      <point x="129" y="-12"/>
      <point x="219" y="-12" type="curve" smooth="yes"/>
      <point x="246" y="-12"/>
      <point x="274" y="-9"/>
      <point x="293" y="-6" type="curve"/>
      <point x="311" y="103" type="line"/>
      <point x="301" y="102"/>
      <point x="286" y="101"/>
      <point x="274" y="101" type="curve" smooth="yes"/>
      <point x="235" y="101"/>
      <point x="211" y="113"/>
      <point x="211" y="144" type="curve" smooth="yes"/>
      <point x="211" y="148"/>
      <point x="211" y="151"/>
      <point x="212" y="157" type="curve" smooth="yes"/>
      <point x="298" y="643" type="line"/>
      <point x="158" y="643" type="line"/>
    </contour>
  </outline>
</glyph>
<glyph name="u" format="2">
  <advance width="556"/>
  <unicode hex="0075"/>
  <anchor x="402" y="500" name="horn"/>
  <anchor x="507" y="0" name="ogonek"/>
  <anchor x="276" y="500" name="center"/>
  <outline>
    <contour>
      <point x="462" y="0" type="line"/>
      <point x="550" y="500" type="line"/>
      <point x="410" y="500" type="line"/>
      <point x="358" y="207" type="line" smooth="yes"/>
      <point x="347" y="147"/>
      <point x="307" y="109"/>
      <point x="252" y="109" type="curve" smooth="yes"/>
      <point x="204" y="109"/>
      <point x="178" y="139"/>
      <point x="178" y="180" type="curve" smooth="yes"/>
      <point x="178" y="188"/>
      <point x="179" y="196"/>
      <point x="180" y="204" type="curve" smooth="yes"/>
      <point x="232" y="500" type="line"/>
      <point x="92" y="500" type="line"/>
      <point x="34" y="173" type="line" smooth="yes"/>
      <point x="31" y="158"/>
      <point x="30" y="145"/>
      <point x="30" y="131" type="curve" smooth="yes"/>
      <point x="30" y="45"/>
      <point x="92" y="-12"/>
      <point x="182" y="-12" type="curve" smooth="yes"/>
      <point x="268" y="-12"/>
      <point x="324" y="40"/>
      <point x="361" y="95" type="curve"/>
      <point x="338" y="95" type="line"/>
      <point x="322" y="0" type="line"/>
    </contour>
  </outline>
</glyph>
<glyph name="v" format="2">
  <advance width="540"/>
  <unicode hex="0076"/>
  <outline>
    <contour>
      <point x="152" y="0" type="line"/>
      <point x="307" y="0" type="line"/>
      <point x="585" y="500" type="line"/>
      <point x="435" y="500" type="line"/>
      <point x="190" y="39" type="line"/>
      <point x="278" y="39" type="line"/>
      <point x="193" y="500" type="line"/>
      <point x="49" y="500" type="line"/>
    </contour>
  </outline>
</glyph>
<glyph name="w" format="2">
  <advance width="747"/>
  <unicode hex="0077"/>
  <outline>
    <contour>
      <point x="121" y="0" type="line"/>
      <point x="247" y="0" type="line"/>
      <point x="451" y="435" type="line"/>
      <point x="364" y="435" type="line"/>
      <point x="419" y="0" type="line"/>
      <point x="545" y="0" type="line"/>
      <point x="792" y="500" type="line"/>
      <point x="647" y="500" type="line"/>
      <point x="442" y="50" type="line"/>
      <point x="530" y="50" type="line"/>
      <point x="470" y="500" type="line"/>
      <point x="360" y="500" type="line"/>
      <point x="154" y="50" type="line"/>
      <point x="237" y="50" type="line"/>
      <point x="190" y="500" type="line"/>
      <point x="49" y="500" type="line"/>
    </contour>
  </outline>
</glyph>
<glyph name="x" format="2">
  <advance width="519"/>
  <unicode hex="0078"/>
  <outline>
    <contour>
      <point x="52" y="500" type="line"/>
      <point x="194" y="228" type="line"/>
      <point x="220" y="228" type="line"/>
      <point x="338" y="0" type="line"/>
      <point x="485" y="0" type="line"/>
      <point x="336" y="276" type="line"/>
      <point x="308" y="281" type="line"/>
      <point x="199" y="500" type="line"/>
    </contour>
    <contour>
      <point x="557" y="500" type="line"/>
      <point x="403" y="500" type="line"/>
      <point x="218" y="281" type="line"/>
      <point x="195" y="278" type="line"/>
      <point x="-50" y="0" type="line"/>
      <point x="109" y="0" type="line"/>
      <point x="306" y="229" type="line"/>
      <point x="321" y="226" type="line"/>
    </contour>
  </outline>
</glyph>
<glyph name="y" format="2">
  <advance width="539"/>
  <unicode hex="0079"/>
  <outline>
    <contour>
      <point x="183" y="-180" type="line"/>
      <point x="575" y="500" type="line"/>
      <point x="420" y="500" type="line"/>
      <point x="176" y="58" type="line"/>
      <point x="155" y="32" type="line"/>
      <point x="26" y="-180" type="line"/>
    </contour>
    <contour>
      <point x="40" y="500" type="line"/>
      <point x="168" y="-61" type="line"/>
      <point x="272" y="116" type="line"/>
      <point x="189" y="500" type="line"/>
    </contour>
  </outline>
</glyph>
<glyph name="braceleft" format="2">
  <advance width="370"/>
  <unicode hex="007B"/>
  <outline>
    <contour>
      <point x="235" y="170" type="line" smooth="yes"/>
      <point x="249" y="249"/>
      <point x="243" y="294"/>
      <point x="178" y="316" type="curve"/>
      <point x="251" y="334"/>
      <point x="271" y="379"/>
      <point x="285" y="458" type="curve" smooth="yes"/>
      <point x="303" y="559" type="line" smooth="yes"/>
      <point x="314" y="619"/>
      <point x="345" y="642"/>
      <point x="410" y="642" type="curve" smooth="yes"/>
      <point x="426" y="642" type="line"/>
      <point x="445" y="745" type="line"/>
      <point x="414" y="745" type="line" smooth="yes"/>
      <point x="261" y="745"/>
      <point x="182" y="690"/>
      <point x="160" y="572" type="curve" smooth="yes"/>
      <point x="140" y="463" type="line" smooth="yes"/>
      <point x="128" y="395"/>
      <point x="108" y="375"/>
      <point x="55" y="375" type="curve" smooth="yes"/>
      <point x="22" y="375" type="line"/>
      <point x="2" y="257" type="line"/>
      <point x="35" y="257" type="line" smooth="yes"/>
      <point x="88" y="257"/>
      <point x="101" y="233"/>
      <point x="90" y="175" type="curve" smooth="yes"/>
      <point x="72" y="76" type="line" smooth="yes"/>
      <point x="52" y="-35"/>
      <point x="71" y="-113"/>
      <point x="262" y="-113" type="curve" smooth="yes"/>
      <point x="293" y="-113" type="line"/>
      <point x="312" y="-9" type="line"/>
      <point x="296" y="-9" type="line" smooth="yes"/>
      <point x="231" y="-9"/>
      <point x="210" y="25"/>
      <point x="219" y="78" type="curve" smooth="yes"/>
    </contour>
  </outline>
</glyph>
<glyph name="bar" format="2">
  <advance width="243"/>
  <unicode hex="007C"/>
  <outline>
    <contour>
      <point x="138" y="745" type="line"/>
      <point x="-14" y="-113" type="line"/>
      <point x="129" y="-113" type="line"/>
      <point x="281" y="745" type="line"/>
    </contour>
  </outline>
</glyph>
<glyph name="asciitilde" format="2">
  <advance width="535"/>
  <unicode hex="007E"/>
  <outline>
    <contour>
      <point x="358" y="232.0" type="curve" smooth="yes"/>
      <point x="433" y="232.0"/>
      <point x="499" y="297.0" name="inserted"/>
      <point x="527" y="408.0" type="curve"/>
      <point x="422" y="408.0" type="line"/>
      <point x="410" y="371.0"/>
      <point x="386" y="352" name="inserted"/>
      <point x="359" y="352.0" type="curve" smooth="yes"/>
      <point x="315" y="352.0"/>
      <point x="253" y="400" name="inserted"/>
      <point x="189" y="400.0" type="curve" smooth="yes"/>
      <point x="114" y="400.0"/>
      <point x="49" y="336.0" name="inserted"/>
      <point x="20" y="225.0" type="curve"/>
      <point x="125" y="225.0" type="line"/>
      <point x="137" y="262.0"/>
      <point x="161" y="280" name="inserted"/>
      <point x="188" y="280.0" type="curve" smooth="yes"/>
      <point x="232" y="280.0"/>
      <point x="294" y="232" name="inserted"/>
    </contour>
  </outline>
</glyph>
<glyph name="sterling" format="2">
  <advance width="618"/>
  <unicode hex="00A3"/>
  <outline>
    <contour>
      <point x="454" y="255" type="line"/>
      <point x="58" y="255" type="line"/>
      <point x="77" y="361" type="line"/>
      <point x="473" y="361" type="line"/>
    </contour>
    <contour>
      <point x="37" y="120" type="line" smooth="yes"/>
      <point x="127" y="120"/>
      <point x="165" y="196"/>
      <point x="165" y="263" type="curve" smooth="yes"/>
      <point x="165" y="325"/>
      <point x="127" y="374"/>
      <point x="127" y="453" type="curve" smooth="yes"/>
      <point x="127" y="567"/>
      <point x="200" y="712"/>
      <point x="394" y="712" type="curve" smooth="yes"/>
      <point x="536" y="712"/>
      <point x="608" y="632"/>
      <point x="608" y="539" type="curve" smooth="yes"/>
      <point x="608" y="510"/>
      <point x="602" y="477"/>
      <point x="584" y="449" type="curve"/>
      <point x="454" y="464" type="line"/>
      <point x="461" y="477"/>
      <point x="469" y="499"/>
      <point x="469" y="520" type="curve" smooth="yes"/>
      <point x="469" y="565"/>
      <point x="434" y="592"/>
      <point x="384" y="592" type="curve" smooth="yes"/>
      <point x="305" y="592"/>
      <point x="269" y="530"/>
      <point x="269" y="463" type="curve" smooth="yes"/>
      <point x="269" y="400"/>
      <point x="304" y="354"/>
      <point x="304" y="281" type="curve" smooth="yes"/>
      <point x="304" y="210"/>
      <point x="271" y="131"/>
      <point x="163" y="98" type="curve"/>
      <point x="148" y="120" type="line"/>
      <point x="544" y="120" type="line"/>
      <point x="523" y="0" type="line"/>
      <point x="1" y="0" type="line"/>
      <point x="22" y="120" type="line"/>
    </contour>
  </outline>
</glyph>
<glyph name="brokenbar" format="2">
  <advance width="243"/>
  <unicode hex="00A6"/>
  <outline>
    <contour>
      <point x="138" y="745" type="line"/>
      <point x="71" y="367" type="line"/>
      <point x="214" y="367" type="line"/>
      <point x="281" y="745" type="line"/>
    </contour>
    <contour>
      <point x="53" y="265" type="line"/>
      <point x="-14" y="-113" type="line"/>
      <point x="129" y="-113" type="line"/>
      <point x="196" y="265" type="line"/>
    </contour>
  </outline>
</glyph>
<glyph name="copyright" format="2">
  <advance width="828"/>
  <unicode hex="00A9"/>
  <outline>
    <contour>
      <point x="378" y="-12" type="curve" smooth="yes"/>
      <point x="620.0" y="-12.0"/>
      <point x="791.0" y="174"/>
      <point x="791" y="399" type="curve" smooth="yes"/>
      <point x="791" y="577"/>
      <point x="661" y="712"/>
      <point x="474" y="712" type="curve" smooth="yes"/>
      <point x="232.0" y="712.0"/>
      <point x="61.0" y="528"/>
      <point x="61" y="303" type="curve" smooth="yes"/>
      <point x="61" y="125"/>
      <point x="191" y="-12"/>
    </contour>
    <contour>
      <point x="403" y="146" type="curve" smooth="yes"/>
      <point x="491" y="146"/>
      <point x="569" y="197"/>
      <point x="599" y="270" type="curve"/>
      <point x="510" y="303" type="line"/>
      <point x="490" y="263"/>
      <point x="461" y="237"/>
      <point x="417" y="237" type="curve" smooth="yes"/>
      <point x="369" y="237.0"/>
      <point x="334" y="268"/>
      <point x="334" y="326" type="curve" smooth="yes"/>
      <point x="334.0" y="394.0"/>
      <point x="377" y="463.0"/>
      <point x="449" y="463" type="curve" smooth="yes"/>
      <point x="495.0" y="463.0"/>
      <point x="521" y="437"/>
      <point x="525" y="393" type="curve"/>
      <point x="621" y="417" type="line"/>
      <point x="615" y="496"/>
      <point x="551" y="554"/>
      <point x="461" y="554" type="curve" smooth="yes"/>
      <point x="324.0" y="554.0"/>
      <point x="229.0" y="449"/>
      <point x="229" y="316" type="curve" smooth="yes"/>
      <point x="229" y="215"/>
      <point x="298" y="146.0"/>
    </contour>
    <contour>
      <point x="388" y="73" type="curve" smooth="yes"/>
      <point x="247" y="73"/>
      <point x="153" y="170"/>
      <point x="153" y="308" type="curve" smooth="yes"/>
      <point x="153.0" y="489.0"/>
      <point x="287" y="627.0"/>
      <point x="464" y="627" type="curve" smooth="yes"/>
      <point x="605" y="627"/>
      <point x="699" y="532"/>
      <point x="699" y="394" type="curve" smooth="yes"/>
      <point x="699.0" y="213.0"/>
      <point x="565" y="73.0"/>
    </contour>
  </outline>
</glyph>
<glyph name="logicalnot" format="2">
  <advance width="645"/>
  <unicode hex="00AC"/>
  <outline>
    <contour>
      <point x="50" y="275" type="line"/>
      <point x="536" y="275" type="line"/>
      <point x="480" y="338" type="line"/>
      <point x="430" y="52" type="line"/>
      <point x="564" y="52" type="line"/>
      <point x="626" y="403" type="line"/>
      <point x="73" y="403" type="line"/>
    </contour>
  </outline>
</glyph>
<glyph name="registered" format="2">
  <advance width="546"/>
  <unicode hex="00AE"/>
  <outline>
    <contour>
      <point x="537" y="513" type="curve" smooth="yes"/>
      <point x="537" y="622"/>
      <point x="458" y="705"/>
      <point x="340" y="705" type="curve" smooth="yes"/>
      <point x="192" y="705"/>
      <point x="85" y="593"/>
      <point x="85" y="451" type="curve" smooth="yes"/>
      <point x="85" y="342"/>
      <point x="164" y="259"/>
      <point x="282" y="259" type="curve" smooth="yes"/>
      <point x="430" y="259"/>
      <point x="537" y="371"/>
    </contour>
    <contour>
      <point x="332" y="647" type="curve" smooth="yes"/>
      <point x="421" y="647"/>
      <point x="474" y="590"/>
      <point x="474" y="509" type="curve" smooth="yes"/>
      <point x="474" y="415"/>
      <point x="408" y="317"/>
      <point x="290" y="317" type="curve" smooth="yes"/>
      <point x="201" y="317"/>
      <point x="148" y="374"/>
      <point x="148" y="455" type="curve" smooth="yes"/>
      <point x="148" y="549"/>
      <point x="214" y="647"/>
    </contour>
    <contour>
      <point x="236" y="589" type="line"/>
      <point x="198" y="375" type="line"/>
      <point x="261" y="375" type="line"/>
      <point x="299" y="589" type="line"/>
    </contour>
    <contour>
      <point x="284" y="452" type="line"/>
      <point x="299" y="424"/>
      <point x="318" y="399"/>
      <point x="335" y="375" type="curve"/>
      <point x="403" y="375" type="line"/>
      <point x="403" y="377" type="line"/>
      <point x="387" y="400"/>
      <point x="367" y="425"/>
      <point x="351" y="452" type="curve"/>
    </contour>
    <contour>
      <point x="326" y="494" type="curve" smooth="yes"/>
      <point x="238" y="494" type="line"/>
      <point x="229" y="443" type="line"/>
      <point x="319" y="443" type="line" smooth="yes"/>
      <point x="395.0" y="443.0"/>
      <point x="419.0" y="485"/>
      <point x="419" y="526" type="curve"/>
      <point x="419.0" y="566.0"/>
      <point x="393.0" y="589.0"/>
      <point x="343" y="589" type="curve" smooth="yes"/>
      <point x="256" y="589" type="line"/>
      <point x="247" y="536" type="line"/>
      <point x="334" y="536" type="line" smooth="yes"/>
      <point x="348" y="536"/>
      <point x="354" y="529"/>
      <point x="354" y="518" type="curve" smooth="yes"/>
      <point x="354.0" y="504.0"/>
      <point x="345" y="494.0"/>
    </contour>
  </outline>
</glyph>
<glyph name="degree" format="2">
  <advance width="388"/>
  <unicode hex="00B0"/>
  <outline>
    <contour>
      <point x="232" y="392" type="curve" smooth="yes"/>
      <point x="337.0" y="392.0"/>
      <point x="403.0" y="477"/>
      <point x="403" y="565" type="curve" smooth="yes"/>
      <point x="403" y="647"/>
      <point x="341" y="708"/>
      <point x="256" y="708" type="curve" smooth="yes"/>
      <point x="151.0" y="708.0"/>
      <point x="85.0" y="623"/>
      <point x="85" y="535" type="curve" smooth="yes"/>
      <point x="85" y="453"/>
      <point x="147" y="392"/>
    </contour>
    <contour>
      <point x="239" y="486" type="curve" smooth="yes"/>
      <point x="206.0" y="486.0"/>
      <point x="184" y="509"/>
      <point x="184" y="544" type="curve" smooth="yes"/>
      <point x="184.0" y="582.0"/>
      <point x="210.0" y="614.0"/>
      <point x="249" y="614" type="curve" smooth="yes"/>
      <point x="282.0" y="614.0"/>
      <point x="304" y="591"/>
      <point x="304" y="556" type="curve" smooth="yes"/>
      <point x="304.0" y="518.0"/>
      <point x="278.0" y="486.0"/>
    </contour>
  </outline>
</glyph>
<glyph name="periodcentered" format="2">
  <advance width="265"/>
  <unicode hex="00B7"/>
  <outline>
    <contour>
      <point x="83" y="387" type="line"/>
      <point x="57" y="238" type="line"/>
      <point x="204" y="238" type="line"/>
      <point x="230" y="387" type="line"/>
    </contour>
  </outline>
</glyph>
<glyph name="AE" format="2">
  <advance width="1092"/>
  <unicode hex="00C6"/>
  <guideline x="697" y="700" angle="90.0" name="center" identifier="GYOTN37zmf"/>
  <guideline x="697" y="700" angle="90" name="center" identifier="GsH2i7SmIG"/>
  <outline>
    <contour>
      <point x="573" y="700" type="line"/>
      <point x="449" y="0" type="line"/>
      <point x="599" y="0" type="line"/>
      <point x="723" y="700" type="line"/>
    </contour>
    <contour>
      <point x="612" y="576" type="line"/>
      <point x="1106" y="576" type="line"/>
      <point x="1128" y="700" type="line"/>
      <point x="634" y="700" type="line"/>
    </contour>
    <contour>
      <point x="572" y="294" type="line"/>
      <point x="918" y="294" type="line"/>
      <point x="940" y="417" type="line"/>
      <point x="594" y="417" type="line"/>
    </contour>
    <contour>
      <point x="514" y="0" type="line"/>
      <point x="1022" y="0" type="line"/>
      <point x="1044" y="124" type="line"/>
      <point x="536" y="124" type="line"/>
    </contour>
    <contour>
      <point x="577" y="323" type="line"/>
      <point x="225" y="323" type="line"/>
      <point x="204" y="201" type="line"/>
      <point x="556" y="201" type="line"/>
    </contour>
    <contour>
      <point x="106" y="0" type="line"/>
      <point x="524" y="576" type="line"/>
      <point x="595" y="576" type="line"/>
      <point x="617" y="700" type="line"/>
      <point x="452" y="700" type="line"/>
      <point x="-59" y="0" type="line"/>
    </contour>
  </outline>
</glyph>
<glyph name="Icircumflex" format="2">
  <advance width="285"/>
  <unicode hex="00CE"/>
  <outline>
    <contour>
      <point x="186" y="892.0" type="line"/>
      <point x="54" y="760.0" type="line"/>
      <point x="176" y="760.0" type="line"/>
      <point x="304" y="847.0" type="line"/>
      <point x="198" y="847.0" type="line"/>
      <point x="294" y="760.0" type="line"/>
      <point x="410" y="760.0" type="line"/>
      <point x="326" y="892.0" type="line"/>
    </contour>
    <component base="I"/>
  </outline>
</glyph>
<glyph name="Idieresis" format="2">
  <advance width="285"/>
  <unicode hex="00CF"/>
  <outline>
    <contour>
      <point x="432" y="899" type="line"/>
      <point x="408" y="760" type="line"/>
      <point x="261" y="760" type="line"/>
      <point x="285" y="899" type="line"/>
    </contour>
    <contour>
      <point x="231" y="899" type="line"/>
      <point x="207" y="760" type="line"/>
      <point x="60" y="760" type="line"/>
      <point x="84" y="899" type="line"/>
    </contour>
    <component base="I"/>
  </outline>
</glyph>
<glyph name="Oslash" format="2">
  <advance width="786"/>
  <unicode hex="00D8"/>
  <anchor x="394" y="700" name="top"/>
  <outline>
    <contour>
      <point x="-11" y="55" type="line"/>
      <point x="71" y="-32" type="line"/>
      <point x="798" y="646" type="line"/>
      <point x="716" y="733" type="line"/>
    </contour>
    <component base="O" xOffset="1" yOffset="-1"/>
  </outline>
</glyph>
<glyph name="Thorn" format="2">
  <advance width="650"/>
  <unicode hex="00DE"/>
  <outline>
    <contour>
      <point x="147" y="700" type="line"/>
      <point x="23" y="0" type="line"/>
      <point x="173" y="0" type="line"/>
      <point x="297" y="700" type="line"/>
    </contour>
    <contour>
      <point x="409" y="440" type="line" smooth="yes"/>
      <point x="467" y="440"/>
      <point x="497" y="416"/>
      <point x="497" y="368" type="curve" smooth="yes"/>
      <point x="497" y="318"/>
      <point x="461" y="270"/>
      <point x="379" y="270" type="curve" smooth="yes"/>
      <point x="143" y="270" type="line"/>
      <point x="121" y="147" type="line"/>
      <point x="372" y="147" type="line" smooth="yes"/>
      <point x="577" y="147"/>
      <point x="652" y="266"/>
      <point x="652" y="390" type="curve" smooth="yes"/>
      <point x="652" y="493"/>
      <point x="592" y="563"/>
      <point x="444" y="563" type="curve" smooth="yes"/>
      <point x="195" y="563" type="line"/>
      <point x="173" y="440" type="line"/>
    </contour>
  </outline>
</glyph>
<glyph name="idieresis" format="2">
  <advance width="250"/>
  <unicode hex="00EF"/>
  <outline>
    <contour>
      <point x="49" y="700.0" type="line"/>
      <point x="25" y="564.0" type="line"/>
      <point x="159" y="564.0" type="line"/>
      <point x="183" y="700.0" type="line"/>
    </contour>
    <contour>
      <point x="227" y="700.0" type="line"/>
      <point x="203" y="564.0" type="line"/>
      <point x="337" y="564.0" type="line"/>
      <point x="361" y="700.0" type="line"/>
    </contour>
    <component base="dotlessi"/>
  </outline>
</glyph>
<glyph name="eth" format="2">
  <advance width="566"/>
  <unicode hex="00F0"/>
  <outline>
    <contour>
      <point x="360" y="376"/>
      <point x="393" y="339"/>
      <point x="393" y="270" type="curve" smooth="yes"/>
      <point x="393" y="191"/>
      <point x="352" y="104"/>
      <point x="261" y="104" type="curve" smooth="yes"/>
      <point x="202" y="104"/>
      <point x="168" y="141"/>
      <point x="168" y="209" type="curve" smooth="yes"/>
      <point x="168" y="288"/>
      <point x="210" y="376"/>
      <point x="301" y="376" type="curve" smooth="yes"/>
    </contour>
    <contour>
      <point x="26" y="76"/>
      <point x="113" y="-12"/>
      <point x="250" y="-12" type="curve" smooth="yes"/>
      <point x="442" y="-12"/>
      <point x="544" y="155"/>
      <point x="544" y="347" type="curve" smooth="yes"/>
      <point x="544" y="525"/>
      <point x="438" y="648"/>
      <point x="315" y="713" type="curve"/>
      <point x="175" y="695" type="line"/>
      <point x="296" y="604"/>
      <point x="375" y="541"/>
      <point x="406" y="409" type="curve"/>
      <point x="411" y="409" type="line"/>
      <point x="386" y="463"/>
      <point x="338" y="493"/>
      <point x="278" y="493" type="curve" smooth="yes"/>
      <point x="138" y="493"/>
      <point x="26" y="354"/>
      <point x="26" y="204" type="curve"/>
    </contour>
    <contour>
      <point x="191" y="502" type="line"/>
      <point x="534" y="626" type="line"/>
      <point x="512" y="693" type="line"/>
      <point x="169" y="569" type="line"/>
    </contour>
  </outline>
</glyph>
<glyph name="divide" format="2">
  <advance width="576"/>
  <unicode hex="00F7"/>
  <outline>
    <contour>
      <point x="537" y="280" type="line"/>
      <point x="559" y="400" type="line"/>
      <point x="71" y="400" type="line"/>
      <point x="49" y="280" type="line"/>
    </contour>
    <contour>
      <point x="207" y="203" type="line"/>
      <point x="182" y="62" type="line"/>
      <point x="327" y="62" type="line"/>
      <point x="352" y="203" type="line"/>
    </contour>
    <contour>
      <point x="280" y="617" type="line"/>
      <point x="255" y="476" type="line"/>
      <point x="400" y="476" type="line"/>
      <point x="425" y="617" type="line"/>
    </contour>
  </outline>
</glyph>
<glyph name="Aogonek" format="2">
  <advance width="670"/>
  <unicode hex="0104"/>
  <outline>
    <contour>
      <point x="163" y="272" type="line"/>
      <point x="142" y="150" type="line"/>
      <point x="491" y="150" type="line"/>
      <point x="512" y="272" type="line"/>
    </contour>
    <contour>
      <point x="490" y="-19" type="line"/>
      <point x="627" y="0" type="line"/>
      <point x="494" y="700" type="line"/>
      <point x="338" y="700" type="line"/>
      <point x="-47" y="0" type="line"/>
      <point x="105" y="0" type="line"/>
      <point x="453" y="644" type="line"/>
      <point x="370" y="644" type="line"/>
    </contour>
    <contour>
      <point x="533" y="-204" type="curve" smooth="yes"/>
      <point x="555" y="-204"/>
      <point x="584" y="-202"/>
      <point x="606" y="-197" type="curve"/>
      <point x="621" y="-110" type="line"/>
      <point x="600" y="-114"/>
      <point x="584" y="-116"/>
      <point x="566" y="-116" type="curve" smooth="yes"/>
      <point x="539" y="-115"/>
      <point x="526" y="-106"/>
      <point x="526" y="-90" type="curve" smooth="yes"/>
      <point x="526" y="-58"/>
      <point x="570" y="-31"/>
      <point x="627" y="0" type="curve"/>
      <point x="506" y="0" type="line"/>
      <point x="463" y="-23"/>
      <point x="406" y="-67"/>
      <point x="406" y="-128" type="curve" smooth="yes"/>
      <point x="406" y="-175"/>
      <point x="451" y="-204"/>
    </contour>
  </outline>
</glyph>
<glyph name="aogonek" format="2">
  <advance width="535"/>
  <unicode hex="0105"/>
  <outline>
    <contour>
      <point x="170" y="-12" type="curve" smooth="yes"/>
      <point x="255" y="-12"/>
      <point x="315" y="29"/>
      <point x="361" y="96" type="curve"/>
      <point x="326" y="97" type="line"/>
      <point x="325" y="90"/>
      <point x="325" y="83"/>
      <point x="325" y="76" type="curve" smooth="yes"/>
      <point x="325" y="5"/>
      <point x="381" y="-7"/>
      <point x="446" y="-7" type="curve" smooth="yes"/>
      <point x="455" y="-7"/>
      <point x="461" y="-5"/>
      <point x="472" y="0" type="curve"/>
      <point x="490" y="100" type="line"/>
      <point x="487" y="100"/>
      <point x="486" y="100"/>
      <point x="482" y="100" type="curve" smooth="yes"/>
      <point x="467" y="100"/>
      <point x="458" y="107"/>
      <point x="458" y="124" type="curve" smooth="yes"/>
      <point x="458" y="127"/>
      <point x="458" y="129"/>
      <point x="459" y="134" type="curve" smooth="yes"/>
      <point x="495" y="338" type="line" smooth="yes"/>
      <point x="497" y="350"/>
      <point x="498" y="362"/>
      <point x="498" y="373" type="curve" smooth="yes"/>
      <point x="498" y="461"/>
      <point x="426" y="512"/>
      <point x="298" y="512" type="curve" smooth="yes"/>
      <point x="153" y="512"/>
      <point x="83" y="432"/>
      <point x="65" y="357" type="curve"/>
      <point x="199" y="328" type="line"/>
      <point x="209" y="374"/>
      <point x="230" y="405"/>
      <point x="289" y="405" type="curve" smooth="yes"/>
      <point x="335" y="405"/>
      <point x="358" y="386"/>
      <point x="358" y="353" type="curve" smooth="yes"/>
      <point x="358" y="347"/>
      <point x="357" y="340"/>
      <point x="356" y="333" type="curve" smooth="yes"/>
      <point x="330" y="183" type="line" smooth="yes"/>
      <point x="320" y="129"/>
      <point x="269" y="91"/>
      <point x="213" y="91" type="curve" smooth="yes"/>
      <point x="172" y="91"/>
      <point x="148" y="112"/>
      <point x="148" y="145" type="curve" smooth="yes"/>
      <point x="148" y="179"/>
      <point x="175" y="205"/>
      <point x="250" y="211" type="curve" smooth="yes"/>
      <point x="407" y="223" type="line"/>
      <point x="424" y="317" type="line"/>
      <point x="207" y="301" type="line" smooth="yes"/>
      <point x="84" y="292"/>
      <point x="7" y="226"/>
      <point x="7" y="127" type="curve" smooth="yes"/>
      <point x="7" y="41"/>
      <point x="72" y="-12"/>
    </contour>
    <contour>
      <point x="378" y="-204" type="curve" smooth="yes"/>
      <point x="400" y="-204"/>
      <point x="429" y="-202"/>
      <point x="451" y="-197" type="curve"/>
      <point x="466" y="-110" type="line"/>
      <point x="445" y="-114"/>
      <point x="429" y="-116"/>
      <point x="411" y="-116" type="curve" smooth="yes"/>
      <point x="384" y="-115"/>
      <point x="371" y="-106"/>
      <point x="371" y="-90" type="curve" smooth="yes"/>
      <point x="371" y="-58"/>
      <point x="415" y="-31"/>
      <point x="472" y="0" type="curve"/>
      <point x="371" y="13" type="line"/>
      <point x="308" y="-23"/>
      <point x="251" y="-67"/>
      <point x="251" y="-128" type="curve" smooth="yes"/>
      <point x="251" y="-175"/>
      <point x="296" y="-204"/>
    </contour>
  </outline>
</glyph>
<glyph name="dcroat" format="2">
  <advance width="584"/>
  <unicode hex="0111"/>
  <outline>
    <contour>
      <point x="325" y="547" type="line"/>
      <point x="643" y="547" type="line"/>
      <point x="657" y="627" type="line"/>
      <point x="339" y="627" type="line"/>
    </contour>
    <component base="d"/>
  </outline>
</glyph>
<glyph name="hbar" format="2">
  <advance width="556"/>
  <unicode hex="0127"/>
  <outline>
    <contour>
      <point x="364" y="547" type="line"/>
      <point x="378" y="627" type="line"/>
      <point x="60" y="627" type="line"/>
      <point x="46" y="547" type="line"/>
    </contour>
    <component base="h"/>
  </outline>
</glyph>
<glyph name="itilde" format="2">
  <advance width="250"/>
  <unicode hex="0129"/>
  <outline>
    <contour>
      <point x="141" y="694.0" type="curve" smooth="yes"/>
      <point x="88" y="694.0"/>
      <point x="48" y="648.0"/>
      <point x="31" y="564.0" type="curve"/>
      <point x="118" y="564.0" type="line"/>
      <point x="123" y="584.0"/>
      <point x="129" y="597.0"/>
      <point x="142" y="597.0" type="curve" smooth="yes"/>
      <point x="165.0" y="597.0"/>
      <point x="204" y="569.0"/>
      <point x="245" y="569.0" type="curve" smooth="yes"/>
      <point x="298" y="569.0"/>
      <point x="337" y="615.0"/>
      <point x="355" y="699.0" type="curve"/>
      <point x="267" y="699.0" type="line"/>
      <point x="261" y="679.0"/>
      <point x="257" y="666.0"/>
      <point x="244" y="666.0" type="curve" smooth="yes"/>
      <point x="221.0" y="666.0"/>
      <point x="182" y="694.0"/>
    </contour>
    <component base="dotlessi"/>
  </outline>
</glyph>
<glyph name="Imacron" format="2">
  <advance width="285"/>
  <unicode hex="012A"/>
  <outline>
    <contour>
      <point x="375" y="760" type="line"/>
      <point x="89" y="760" type="line"/>
      <point x="107" y="860" type="line"/>
      <point x="393" y="860" type="line"/>
    </contour>
    <component base="I"/>
  </outline>
</glyph>
<glyph name="imacron" format="2">
  <advance width="250"/>
  <unicode hex="012B"/>
  <outline>
    <contour>
      <point x="49" y="587.0" type="line"/>
      <point x="319" y="587.0" type="line"/>
      <point x="337" y="688.0" type="line"/>
      <point x="67" y="688.0" type="line"/>
    </contour>
    <component base="dotlessi"/>
  </outline>
</glyph>
<glyph name="ibreve" format="2">
  <advance width="250"/>
  <unicode hex="012D"/>
  <outline>
    <contour>
      <point x="55" y="700.0" type="line"/>
      <point x="44" y="629.0"/>
      <point x="84" y="559"/>
      <point x="187" y="559.0" type="curve" smooth="yes"/>
      <point x="289.0" y="559.0"/>
      <point x="344" y="629.0"/>
      <point x="355" y="700.0" type="curve"/>
      <point x="252" y="700.0" type="line"/>
      <point x="247" y="669.0"/>
      <point x="229" y="647.0"/>
      <point x="198" y="647.0" type="curve" smooth="yes"/>
      <point x="167.0" y="647.0"/>
      <point x="153" y="669.0"/>
      <point x="158" y="700.0" type="curve"/>
    </contour>
    <component base="dotlessi"/>
  </outline>
</glyph>
<glyph name="Iogonek" format="2">
  <advance width="285"/>
  <unicode hex="012E"/>
  <outline>
    <contour>
      <point x="80" y="-204" type="curve" smooth="yes"/>
      <point x="102" y="-204"/>
      <point x="131" y="-202"/>
      <point x="153" y="-197" type="curve"/>
      <point x="168" y="-110" type="line"/>
      <point x="147" y="-114"/>
      <point x="131" y="-116"/>
      <point x="113" y="-116" type="curve" smooth="yes"/>
      <point x="86" y="-115"/>
      <point x="73" y="-106"/>
      <point x="73" y="-90" type="curve" smooth="yes"/>
      <point x="73" y="-58"/>
      <point x="117" y="-31"/>
      <point x="174" y="0" type="curve"/>
      <point x="53" y="0" type="line"/>
      <point x="10" y="-23"/>
      <point x="-47" y="-67"/>
      <point x="-47" y="-128" type="curve" smooth="yes"/>
      <point x="-47" y="-175"/>
      <point x="-2" y="-204"/>
    </contour>
    <contour>
      <point x="17" y="-35" type="line"/>
      <point x="174" y="0" type="line"/>
      <point x="298" y="700" type="line"/>
      <point x="147" y="700" type="line"/>
    </contour>
  </outline>
</glyph>
<glyph name="dotlessi" format="2">
  <advance width="250"/>
  <unicode hex="0131"/>
  <anchor x="195" y="0" name="ogonek"/>
  <outline>
    <contour>
      <point x="99" y="500" type="line"/>
      <point x="11" y="0" type="line"/>
      <point x="151" y="0" type="line"/>
      <point x="239" y="500" type="line"/>
    </contour>
  </outline>
</glyph>
<glyph name="IJ" format="2">
  <advance width="860"/>
  <unicode hex="0132"/>
  <outline>
    <contour>
      <point x="147" y="700" type="line"/>
      <point x="23" y="0" type="line"/>
      <point x="174" y="0" type="line"/>
      <point x="298" y="700" type="line"/>
    </contour>
    <contour>
      <point x="789" y="201" type="curve" smooth="yes"/>
      <point x="877" y="700" type="line"/>
      <point x="727" y="700" type="line"/>
      <point x="640" y="209" type="line" smooth="yes"/>
      <point x="630" y="153"/>
      <point x="600" y="109"/>
      <point x="532" y="109" type="curve" smooth="yes"/>
      <point x="475" y="109"/>
      <point x="441" y="141"/>
      <point x="441" y="207" type="curve" smooth="yes"/>
      <point x="441" y="220"/>
      <point x="442" y="234"/>
      <point x="445" y="250" type="curve"/>
      <point x="298" y="272" type="line"/>
      <point x="293" y="246"/>
      <point x="291" y="222"/>
      <point x="291" y="199" type="curve" smooth="yes"/>
      <point x="291" y="57"/>
      <point x="384" y="-12"/>
      <point x="523" y="-12" type="curve" smooth="yes"/>
      <point x="678" y="-12"/>
      <point x="766" y="71"/>
    </contour>
  </outline>
</glyph>
<glyph name="Lslash" format="2">
  <advance width="630"/>
  <unicode hex="0141"/>
  <outline>
    <contour>
      <point x="16" y="305" type="line"/>
      <point x="474" y="502" type="line"/>
      <point x="452" y="370" type="line"/>
      <point x="-7" y="173" type="line"/>
    </contour>
    <component base="L"/>
  </outline>
</glyph>
<glyph name="lslash" format="2">
  <advance width="260"/>
  <unicode hex="0142"/>
  <outline>
    <contour>
      <point x="22" y="342" type="line"/>
      <point x="3" y="237" type="line"/>
      <point x="278" y="392" type="line"/>
      <point x="297" y="497" type="line"/>
    </contour>
    <component base="l" xOffset="5"/>
  </outline>
</glyph>
<glyph name="Eng" format="2">
  <advance width="774"/>
  <unicode hex="014A"/>
  <outline>
    <contour>
      <point x="616" y="118" type="line"/>
      <point x="335" y="700" type="line"/>
      <point x="147" y="700" type="line"/>
      <point x="23" y="0" type="line"/>
      <point x="169" y="0" type="line"/>
      <point x="271" y="580" type="line"/>
      <point x="236" y="580" type="line"/>
      <point x="517" y="0" type="line"/>
      <point x="663" y="0" type="line"/>
      <point x="787" y="700" type="line"/>
      <point x="642" y="700" type="line"/>
      <point x="539" y="118" type="line"/>
    </contour>
    <contour>
      <point x="439" y="-192" type="curve" smooth="yes"/>
      <point x="564" y="-192"/>
      <point x="639" y="-133"/>
      <point x="661" y="-11" type="curve" smooth="yes"/>
      <point x="663" y="0" type="line"/>
      <point x="529" y="80" type="line"/>
      <point x="514" y="-7" type="line" smooth="yes"/>
      <point x="507" y="-43"/>
      <point x="485" y="-71"/>
      <point x="423" y="-71" type="curve" smooth="yes"/>
      <point x="384" y="-71"/>
      <point x="352" y="-62"/>
      <point x="329" y="-55" type="curve"/>
      <point x="309" y="-171" type="line"/>
      <point x="344" y="-183"/>
      <point x="391" y="-192"/>
    </contour>
  </outline>
</glyph>
<glyph name="eng" format="2">
  <advance width="556"/>
  <unicode hex="014B"/>
  <outline>
    <contour>
      <point x="450" y="-74" type="curve" smooth="yes"/>
      <point x="521" y="327" type="line" smooth="yes"/>
      <point x="524" y="342"/>
      <point x="525" y="355"/>
      <point x="525" y="369" type="curve" smooth="yes"/>
      <point x="525" y="455"/>
      <point x="466" y="512"/>
      <point x="375" y="512" type="curve" smooth="yes"/>
      <point x="310" y="512"/>
      <point x="260" y="481"/>
      <point x="224" y="442" type="curve"/>
      <point x="234" y="500" type="line"/>
      <point x="94" y="500" type="line"/>
      <point x="6" y="0" type="line"/>
      <point x="146" y="0" type="line"/>
      <point x="198" y="293" type="line" smooth="yes"/>
      <point x="209" y="353"/>
      <point x="250" y="391"/>
      <point x="305" y="391" type="curve" smooth="yes"/>
      <point x="353" y="391"/>
      <point x="377" y="361"/>
      <point x="377" y="320" type="curve" smooth="yes"/>
      <point x="377" y="312"/>
      <point x="376" y="304"/>
      <point x="375" y="296" type="curve" smooth="yes"/>
      <point x="317" y="-35" type="line" smooth="yes"/>
      <point x="311" y="-68"/>
      <point x="299" y="-81"/>
      <point x="271" y="-81" type="curve" smooth="yes"/>
      <point x="262" y="-81"/>
      <point x="254" y="-80"/>
      <point x="240" y="-78" type="curve"/>
      <point x="223" y="-180" type="line"/>
      <point x="237" y="-185"/>
      <point x="268" y="-190"/>
      <point x="296" y="-190" type="curve" smooth="yes"/>
      <point x="361" y="-190"/>
      <point x="434" y="-164"/>
    </contour>
  </outline>
</glyph>
<glyph name="OE" format="2">
  <advance width="1211"/>
  <unicode hex="0152"/>
  <outline>
    <contour>
      <point x="364" y="-13" type="curve" smooth="yes"/>
      <point x="611" y="-13"/>
      <point x="737" y="202"/>
      <point x="737" y="418" type="curve" smooth="yes"/>
      <point x="737" y="591"/>
      <point x="643" y="712"/>
      <point x="449" y="712" type="curve" smooth="yes"/>
      <point x="204" y="712"/>
      <point x="43" y="519"/>
      <point x="43" y="297" type="curve" smooth="yes"/>
      <point x="43" y="110"/>
      <point x="173" y="-13"/>
    </contour>
    <contour>
      <point x="383" y="115" type="curve" smooth="yes"/>
      <point x="276" y="115"/>
      <point x="199" y="183"/>
      <point x="199" y="307" type="curve" smooth="yes"/>
      <point x="199" y="452"/>
      <point x="298" y="583"/>
      <point x="445" y="583" type="curve" smooth="yes"/>
      <point x="552" y="583"/>
      <point x="629" y="513"/>
      <point x="629" y="391" type="curve" smooth="yes"/>
      <point x="629" y="244"/>
      <point x="530" y="115"/>
    </contour>
    <contour>
      <point x="727" y="576" type="line"/>
      <point x="1221" y="576" type="line"/>
      <point x="1243" y="700" type="line"/>
      <point x="749" y="700" type="line"/>
    </contour>
    <contour>
      <point x="687" y="294" type="line"/>
      <point x="1033" y="294" type="line"/>
      <point x="1055" y="417" type="line"/>
      <point x="709" y="417" type="line"/>
    </contour>
    <contour>
      <point x="629" y="0" type="line"/>
      <point x="1137" y="0" type="line"/>
      <point x="1159" y="124" type="line"/>
      <point x="651" y="124" type="line"/>
    </contour>
    <contour>
      <point x="688" y="700" type="line"/>
      <point x="564" y="0" type="line"/>
      <point x="714" y="0" type="line"/>
      <point x="838" y="700" type="line"/>
    </contour>
  </outline>
</glyph>
<glyph name="oe" format="2">
  <advance width="933"/>
  <unicode hex="0153"/>
  <outline>
    <contour>
      <point x="411" y="72"/>
      <point x="493" y="-12"/>
      <point x="628" y="-12" type="curve" smooth="yes"/>
      <point x="742" y="-12"/>
      <point x="838" y="46"/>
      <point x="878" y="130" type="curve"/>
      <point x="758" y="168" type="line"/>
      <point x="733" y="123"/>
      <point x="693" y="98"/>
      <point x="642" y="98" type="curve" smooth="yes"/>
      <point x="578" y="98"/>
      <point x="540" y="134"/>
      <point x="540" y="210" type="curve" smooth="yes"/>
      <point x="540" y="299"/>
      <point x="584" y="400"/>
      <point x="681" y="400" type="curve" smooth="yes"/>
      <point x="741" y="400"/>
      <point x="773" y="360"/>
      <point x="773" y="297" type="curve" smooth="yes"/>
      <point x="773" y="279"/>
      <point x="770" y="267"/>
      <point x="767" y="248" type="curve"/>
      <point x="834" y="308" type="line"/>
      <point x="483" y="308" type="line"/>
      <point x="465" y="204" type="line"/>
      <point x="898" y="204" type="line"/>
      <point x="904" y="236" type="line" smooth="yes"/>
      <point x="908" y="258"/>
      <point x="910" y="276"/>
      <point x="910" y="295" type="curve" smooth="yes"/>
      <point x="910" y="424"/>
      <point x="830" y="512"/>
      <point x="696" y="512" type="curve" smooth="yes"/>
      <point x="523" y="512"/>
      <point x="411" y="368"/>
      <point x="411" y="205" type="curve" smooth="yes"/>
    </contour>
    <contour>
      <point x="28" y="73"/>
      <point x="120" y="-12"/>
      <point x="254" y="-12" type="curve" smooth="yes"/>
      <point x="437" y="-12"/>
      <point x="537" y="134"/>
      <point x="537" y="292" type="curve" smooth="yes"/>
      <point x="537" y="427"/>
      <point x="459" y="512"/>
      <point x="325" y="512" type="curve" smooth="yes"/>
      <point x="140" y="512"/>
      <point x="28" y="364"/>
      <point x="28" y="209" type="curve" smooth="yes"/>
    </contour>
    <contour>
      <point x="373" y="396"/>
      <point x="410" y="356"/>
      <point x="410" y="284" type="curve" smooth="yes"/>
      <point x="410" y="201"/>
      <point x="366" y="104"/>
      <point x="270" y="104" type="curve" smooth="yes"/>
      <point x="209" y="104"/>
      <point x="170" y="144"/>
      <point x="170" y="216" type="curve" smooth="yes"/>
      <point x="170" y="299"/>
      <point x="216" y="396"/>
      <point x="312" y="396" type="curve" smooth="yes"/>
    </contour>
  </outline>
</glyph>
<glyph name="tbar" format="2">
  <advance width="363"/>
  <unicode hex="0167"/>
  <outline>
    <contour>
      <point x="-1" y="223" type="line"/>
      <point x="332" y="223" type="line"/>
      <point x="350" y="330" type="line"/>
      <point x="17" y="330" type="line"/>
    </contour>
    <component base="t"/>
  </outline>
</glyph>
<glyph name="Uogonek" format="2">
  <advance width="736"/>
  <unicode hex="0172"/>
  <outline>
    <contour>
      <point x="337" y="-204" type="curve" smooth="yes"/>
      <point x="359" y="-204"/>
      <point x="388" y="-202"/>
      <point x="410" y="-197" type="curve"/>
      <point x="425" y="-110" type="line"/>
      <point x="404" y="-114"/>
      <point x="388" y="-116"/>
      <point x="370" y="-116" type="curve" smooth="yes"/>
      <point x="343" y="-115"/>
      <point x="330" y="-106"/>
      <point x="330" y="-90" type="curve" smooth="yes"/>
      <point x="330" y="-59"/>
      <point x="371" y="-25"/>
      <point x="442" y="-5" type="curve" smooth="yes"/>
      <point x="574" y="32"/>
      <point x="649" y="122"/>
      <point x="673" y="258" type="curve" smooth="yes"/>
      <point x="751" y="700" type="line"/>
      <point x="606" y="700" type="line"/>
      <point x="530" y="271" type="line" smooth="yes"/>
      <point x="513" y="177"/>
      <point x="451" y="117"/>
      <point x="354" y="117" type="curve" smooth="yes"/>
      <point x="265" y="117"/>
      <point x="212" y="169"/>
      <point x="212" y="247" type="curve" smooth="yes"/>
      <point x="212" y="258"/>
      <point x="213" y="270"/>
      <point x="215" y="283" type="curve" smooth="yes"/>
      <point x="289" y="700" type="line"/>
      <point x="143" y="700" type="line"/>
      <point x="69" y="280" type="line" smooth="yes"/>
      <point x="65" y="259"/>
      <point x="63" y="238"/>
      <point x="63" y="219" type="curve" smooth="yes"/>
      <point x="63" y="91"/>
      <point x="145" y="5"/>
      <point x="293" y="-10" type="curve"/>
      <point x="254" y="-34"/>
      <point x="210" y="-75"/>
      <point x="210" y="-128" type="curve" smooth="yes"/>
      <point x="210" y="-175"/>
      <point x="255" y="-204"/>
    </contour>
  </outline>
</glyph>
<glyph name="uogonek" format="2">
  <advance width="556"/>
  <unicode hex="0173"/>
  <outline>
    <contour>
      <point x="182" y="-12" type="curve" smooth="yes"/>
      <point x="268" y="-12"/>
      <point x="324" y="40"/>
      <point x="361" y="95" type="curve"/>
      <point x="338" y="95" type="line"/>
      <point x="318" y="-22" type="line"/>
      <point x="462" y="0" type="line"/>
      <point x="550" y="500" type="line"/>
      <point x="410" y="500" type="line"/>
      <point x="358" y="207" type="line" smooth="yes"/>
      <point x="347" y="147"/>
      <point x="307" y="109"/>
      <point x="252" y="109" type="curve" smooth="yes"/>
      <point x="204" y="109"/>
      <point x="178" y="139"/>
      <point x="178" y="180" type="curve" smooth="yes"/>
      <point x="178" y="188"/>
      <point x="179" y="196"/>
      <point x="180" y="204" type="curve" smooth="yes"/>
      <point x="232" y="500" type="line"/>
      <point x="92" y="500" type="line"/>
      <point x="34" y="173" type="line" smooth="yes"/>
      <point x="31" y="158"/>
      <point x="30" y="145"/>
      <point x="30" y="131" type="curve" smooth="yes"/>
      <point x="30" y="45"/>
      <point x="92" y="-12"/>
    </contour>
    <contour>
      <point x="368" y="-204" type="curve" smooth="yes"/>
      <point x="390" y="-204"/>
      <point x="419" y="-202"/>
      <point x="441" y="-197" type="curve"/>
      <point x="456" y="-110" type="line"/>
      <point x="435" y="-114"/>
      <point x="419" y="-116"/>
      <point x="401" y="-116" type="curve" smooth="yes"/>
      <point x="374" y="-115"/>
      <point x="361" y="-106"/>
      <point x="361" y="-90" type="curve" smooth="yes"/>
      <point x="361" y="-58"/>
      <point x="405" y="-31"/>
      <point x="462" y="0" type="curve"/>
      <point x="341" y="0" type="line"/>
      <point x="298" y="-23"/>
      <point x="241" y="-67"/>
      <point x="241" y="-128" type="curve" smooth="yes"/>
      <point x="241" y="-175"/>
      <point x="286" y="-204"/>
    </contour>
  </outline>
</glyph>
<glyph name="Oopen" format="2">
  <advance width="748"/>
  <unicode hex="0186"/>
  <outline>
    <contour>
      <point x="68" y="498" type="curve"/>
      <point x="200" y="451" type="line"/>
      <point x="244" y="543"/>
      <point x="325" y="584"/>
      <point x="403" y="584" type="curve" smooth="yes"/>
      <point x="505" y="584"/>
      <point x="570" y="517"/>
      <point x="570" y="400" type="curve" smooth="yes"/>
      <point x="570" y="259"/>
      <point x="486" y="116"/>
      <point x="340" y="116" type="curve" smooth="yes"/>
      <point x="253" y="116"/>
      <point x="181" y="165"/>
      <point x="165" y="265" type="curve"/>
      <point x="19" y="228" type="line"/>
      <point x="30" y="90"/>
      <point x="155" y="-12"/>
      <point x="325" y="-12" type="curve" smooth="yes"/>
      <point x="571" y="-12"/>
      <point x="726" y="187"/>
      <point x="726" y="408" type="curve" smooth="yes"/>
      <point x="726" y="589"/>
      <point x="609" y="712"/>
      <point x="418" y="712" type="curve" smooth="yes"/>
      <point x="263" y="712"/>
      <point x="125" y="625"/>
    </contour>
  </outline>
</glyph>
<glyph name="Dhook" format="2">
  <advance width="896"/>
  <unicode hex="018A"/>
  <outline>
    <contour>
      <point x="381" y="700" type="line"/>
      <point x="288" y="700" type="line" smooth="yes"/>
      <point x="103" y="700"/>
      <point x="25" y="570"/>
      <point x="25" y="460" type="curve" smooth="yes"/>
      <point x="25" y="430"/>
      <point x="33" y="400"/>
      <point x="45" y="377" type="curve"/>
      <point x="183" y="377" type="line"/>
      <point x="171" y="404"/>
      <point x="164" y="433"/>
      <point x="164" y="459" type="curve" smooth="yes"/>
      <point x="164" y="519"/>
      <point x="196" y="576"/>
      <point x="270" y="576" type="curve" smooth="yes"/>
      <point x="359" y="576" type="line"/>
    </contour>
    <contour>
      <point x="172" y="0" type="line"/>
      <point x="322" y="0" type="line"/>
      <point x="446" y="700" type="line"/>
      <point x="296" y="700" type="line"/>
    </contour>
    <contour>
      <point x="256" y="123" type="line"/>
      <point x="234" y="0" type="line"/>
      <point x="451" y="0" type="line" smooth="yes"/>
      <point x="732" y="0"/>
      <point x="878" y="186"/>
      <point x="878" y="408" type="curve" smooth="yes"/>
      <point x="878" y="580"/>
      <point x="775" y="700"/>
      <point x="573" y="700" type="curve" smooth="yes"/>
      <point x="358" y="700" type="line"/>
      <point x="336" y="577" type="line"/>
      <point x="546" y="577" type="line" smooth="yes"/>
      <point x="650" y="577"/>
      <point x="722" y="525"/>
      <point x="722" y="396" type="curve" smooth="yes"/>
      <point x="722" y="243"/>
      <point x="623" y="123"/>
      <point x="466" y="123" type="curve" smooth="yes"/>
    </contour>
  </outline>
</glyph>
<glyph name="Nhookleft" format="2">
  <advance width="774"/>
  <unicode hex="019D"/>
  <outline>
    <contour>
      <point x="606" y="118" type="line"/>
      <point x="335" y="700" type="line"/>
      <point x="147" y="700" type="line"/>
      <point x="23" y="0" type="line"/>
      <point x="169" y="0" type="line"/>
      <point x="272" y="580" type="line"/>
      <point x="237" y="580" type="line"/>
      <point x="507" y="0" type="line"/>
      <point x="663" y="0" type="line"/>
      <point x="787" y="700" type="line"/>
      <point x="642" y="700" type="line"/>
      <point x="539" y="118" type="line"/>
    </contour>
    <contour>
      <point x="-38" y="-192" type="curve" smooth="yes"/>
      <point x="71" y="-192"/>
      <point x="143" y="-138"/>
      <point x="163" y="-32" type="curve" smooth="yes"/>
      <point x="169" y="0" type="line"/>
      <point x="23" y="0" type="line"/>
      <point x="20" y="-15" type="line" smooth="yes"/>
      <point x="11" y="-60"/>
      <point x="-26" y="-76"/>
      <point x="-65" y="-76" type="curve" smooth="yes"/>
      <point x="-77" y="-76"/>
      <point x="-93" y="-75"/>
      <point x="-111" y="-69" type="curve"/>
      <point x="-130" y="-180" type="line"/>
      <point x="-104" y="-187"/>
      <point x="-75" y="-192"/>
    </contour>
  </outline>
</glyph>
<glyph name="Yhook" format="2">
  <advance width="666"/>
  <unicode hex="01B3"/>
  <outline>
    <contour>
      <point x="618" y="548" type="line" smooth="yes"/>
      <point x="642" y="576"/>
      <point x="664" y="587"/>
      <point x="684" y="587" type="curve" smooth="yes"/>
      <point x="695" y="587"/>
      <point x="713" y="582"/>
      <point x="735" y="573" type="curve"/>
      <point x="759" y="691" type="line"/>
      <point x="736" y="703"/>
      <point x="708" y="712"/>
      <point x="674" y="712" type="curve" smooth="yes"/>
      <point x="620" y="712"/>
      <point x="568" y="688"/>
      <point x="524" y="635" type="curve" smooth="yes"/>
      <point x="285" y="352" type="line"/>
      <point x="400" y="352" type="line"/>
      <point x="231" y="700" type="line"/>
      <point x="71" y="700" type="line"/>
      <point x="263" y="307" type="line"/>
      <point x="209" y="0" type="line"/>
      <point x="360" y="0" type="line"/>
      <point x="414" y="307" type="line"/>
    </contour>
  </outline>
</glyph>
<glyph name="Icaron" format="2">
  <advance width="285"/>
  <unicode hex="01CF"/>
  <outline>
    <contour>
      <point x="162" y="760.0" type="line"/>
      <point x="302" y="760.0" type="line"/>
      <point x="434" y="892.0" type="line"/>
      <point x="314" y="892.0" type="line"/>
      <point x="186" y="805.0" type="line"/>
      <point x="292" y="805.0" type="line"/>
      <point x="196" y="892.0" type="line"/>
      <point x="78" y="892.0" type="line"/>
    </contour>
    <component base="I"/>
  </outline>
</glyph>
<glyph name="oopen" format="2">
  <advance width="537"/>
  <unicode hex="0254"/>
  <outline>
    <contour>
      <point x="30" y="360" type="curve"/>
      <point x="158" y="320" type="line"/>
      <point x="179" y="379"/>
      <point x="226" y="398"/>
      <point x="270" y="398" type="curve" smooth="yes"/>
      <point x="328" y="398"/>
      <point x="365" y="365"/>
      <point x="365" y="288" type="curve" smooth="yes"/>
      <point x="365" y="203"/>
      <point x="325" y="102"/>
      <point x="228" y="102" type="curve" smooth="yes"/>
      <point x="182" y="102"/>
      <point x="135" y="123"/>
      <point x="132" y="186" type="curve"/>
      <point x="-3" y="157" type="line"/>
      <point x="5" y="55"/>
      <point x="94" y="-12"/>
      <point x="215" y="-12" type="curve" smooth="yes"/>
      <point x="403" y="-12"/>
      <point x="506" y="133"/>
      <point x="506" y="294" type="curve" smooth="yes"/>
      <point x="506" y="430"/>
      <point x="420" y="512"/>
      <point x="285" y="512" type="curve" smooth="yes"/>
      <point x="169" y="512"/>
      <point x="71" y="453"/>
    </contour>
  </outline>
</glyph>
<glyph name="eopen" format="2">
  <advance width="513"/>
  <unicode hex="025B"/>
  <outline>
    <contour>
      <point x="494" y="158" type="curve"/>
      <point x="354" y="152" type="line"/>
      <point x="344" y="115"/>
      <point x="321" y="88"/>
      <point x="256" y="88" type="curve" smooth="yes"/>
      <point x="185" y="88"/>
      <point x="158" y="116"/>
      <point x="158" y="148" type="curve" smooth="yes"/>
      <point x="158" y="183"/>
      <point x="191" y="208"/>
      <point x="261" y="208" type="curve" smooth="yes"/>
      <point x="316" y="208" type="line"/>
      <point x="333" y="308" type="line"/>
      <point x="291" y="308" type="line" smooth="yes"/>
      <point x="241" y="308"/>
      <point x="207" y="320"/>
      <point x="207" y="353" type="curve" smooth="yes"/>
      <point x="207" y="380"/>
      <point x="230" y="412"/>
      <point x="298" y="412" type="curve" smooth="yes"/>
      <point x="358" y="412"/>
      <point x="384" y="390"/>
      <point x="384" y="357" type="curve" smooth="yes"/>
      <point x="384" y="353"/>
      <point x="384" y="347"/>
      <point x="383" y="342" type="curve"/>
      <point x="522" y="335" type="line"/>
      <point x="524" y="344"/>
      <point x="525" y="356"/>
      <point x="525" y="368" type="curve" smooth="yes"/>
      <point x="525" y="460"/>
      <point x="440" y="512"/>
      <point x="304" y="512" type="curve" smooth="yes"/>
      <point x="155" y="512"/>
      <point x="66" y="439"/>
      <point x="66" y="356" type="curve" smooth="yes"/>
      <point x="66" y="301"/>
      <point x="110" y="275"/>
      <point x="140" y="263" type="curve"/>
      <point x="141" y="268" type="line"/>
      <point x="78" y="257"/>
      <point x="14" y="210"/>
      <point x="14" y="133" type="curve" smooth="yes"/>
      <point x="14" y="46"/>
      <point x="104" y="-12"/>
      <point x="248" y="-12" type="curve" smooth="yes"/>
      <point x="389" y="-12"/>
      <point x="476" y="40"/>
    </contour>
  </outline>
</glyph>
<glyph name="istroke" format="2">
  <advance width="250"/>
  <unicode hex="0268"/>
  <outline>
    <contour>
      <point x="252" y="251" type="line"/>
      <point x="268" y="345" type="line"/>
      <point x="16" y="345" type="line"/>
      <point x="0" y="251" type="line"/>
    </contour>
    <component base="i"/>
  </outline>
</glyph>
<glyph name="nhookleft" format="2">
  <advance width="556"/>
  <unicode hex="0272"/>
  <outline>
    <contour>
      <point x="-91" y="-180" type="line"/>
      <point x="-76" y="-186"/>
      <point x="-50" y="-190"/>
      <point x="-24" y="-190" type="curve" smooth="yes"/>
      <point x="42" y="-190"/>
      <point x="117" y="-166"/>
      <point x="133" y="-75" type="curve" smooth="yes"/>
      <point x="198" y="293" type="line" smooth="yes"/>
      <point x="209" y="353"/>
      <point x="250" y="391"/>
      <point x="305" y="391" type="curve" smooth="yes"/>
      <point x="353" y="391"/>
      <point x="377" y="361"/>
      <point x="377" y="320" type="curve" smooth="yes"/>
      <point x="377" y="312"/>
      <point x="376" y="304"/>
      <point x="375" y="296" type="curve" smooth="yes"/>
      <point x="323" y="0" type="line"/>
      <point x="463" y="0" type="line"/>
      <point x="521" y="327" type="line" smooth="yes"/>
      <point x="524" y="342"/>
      <point x="525" y="355"/>
      <point x="525" y="369" type="curve" smooth="yes"/>
      <point x="525" y="455"/>
      <point x="466" y="512"/>
      <point x="375" y="512" type="curve" smooth="yes"/>
      <point x="310" y="512"/>
      <point x="260" y="481"/>
      <point x="224" y="442" type="curve"/>
      <point x="234" y="500" type="line"/>
      <point x="94" y="500" type="line"/>
      <point x="0" y="-35" type="line" smooth="yes"/>
      <point x="-6" y="-67"/>
      <point x="-17" y="-81"/>
      <point x="-45" y="-81" type="curve" smooth="yes"/>
      <point x="-54" y="-81"/>
      <point x="-63" y="-80"/>
      <point x="-73" y="-78" type="curve"/>
    </contour>
  </outline>
</glyph>
<glyph name="vturned" format="2">
  <advance width="540"/>
  <unicode hex="028C"/>
  <outline>
    <contour>
      <point x="391" y="500" type="line"/>
      <point x="236" y="500" type="line"/>
      <point x="-42" y="0" type="line"/>
      <point x="109" y="0" type="line"/>
      <point x="354" y="461" type="line"/>
      <point x="266" y="461" type="line"/>
      <point x="351" y="0" type="line"/>
      <point x="494" y="0" type="line"/>
    </contour>
  </outline>
</glyph>
<glyph name="ringhalfleftmod" format="2">
  <advance width="238"/>
  <unicode hex="02BF"/>
  <outline>
    <contour>
      <point x="258" y="601" type="curve" smooth="yes"/>
      <point x="277" y="601" type="line"/>
      <point x="294" y="700" type="line"/>
      <point x="270" y="700" type="line" smooth="yes"/>
      <point x="130" y="700"/>
      <point x="62" y="609"/>
      <point x="62" y="509" type="curve" smooth="yes"/>
      <point x="62" y="429"/>
      <point x="108" y="370"/>
      <point x="222" y="370" type="curve" smooth="yes"/>
      <point x="236" y="370" type="line"/>
      <point x="253" y="469" type="line"/>
      <point x="238" y="469" type="line"/>
      <point x="197" y="469"/>
      <point x="175" y="492"/>
      <point x="175" y="527" type="curve" smooth="yes"/>
      <point x="175" y="572"/>
      <point x="210" y="601"/>
    </contour>
  </outline>
</glyph>
<glyph name="gravecmb" format="2">
  <advance width="600"/>
  <unicode hex="0300"/>
  <anchor x="331" y="570" name="center"/>
  <outline>
    <contour>
      <point x="402" y="700" type="line"/>
      <point x="438" y="564" type="line"/>
      <point x="339" y="564" type="line"/>
      <point x="275" y="700" type="line"/>
    </contour>
  </outline>
</glyph>
<glyph name="acutecmb" format="2">
  <advance width="600"/>
  <unicode hex="0301"/>
  <anchor x="269" y="570" name="center"/>
  <outline>
    <contour>
      <point x="349" y="700" type="line"/>
      <point x="486" y="700" type="line"/>
      <point x="374" y="564" type="line"/>
      <point x="265" y="564" type="line"/>
    </contour>
  </outline>
</glyph>
<glyph name="circumflexcmb" format="2">
  <advance width="600"/>
  <unicode hex="0302"/>
  <outline>
    <contour>
      <point x="311" y="700" type="line"/>
      <point x="177" y="564" type="line"/>
      <point x="294" y="564" type="line"/>
      <point x="427" y="662" type="line"/>
      <point x="321" y="662" type="line"/>
      <point x="420" y="564" type="line"/>
      <point x="531" y="564" type="line"/>
      <point x="445" y="700" type="line"/>
    </contour>
  </outline>
</glyph>
<glyph name="macroncmb" format="2">
  <advance width="600"/>
  <unicode hex="0304"/>
  <outline>
    <contour>
      <point x="202" y="587" type="line"/>
      <point x="512" y="587" type="line"/>
      <point x="530" y="688" type="line"/>
      <point x="220" y="688" type="line"/>
    </contour>
  </outline>
</glyph>
<glyph name="hookabovecmb" format="2">
  <advance width="600"/>
  <unicode hex="0309"/>
  <anchor x="281" y="762" name="center"/>
  <outline>
    <contour>
      <point x="372" y="647"/>
      <point x="347" y="626"/>
      <point x="293" y="615" type="curve"/>
      <point x="334" y="554" type="line"/>
      <point x="396" y="566"/>
      <point x="458" y="610"/>
      <point x="458" y="683" type="curve" smooth="yes"/>
      <point x="458" y="736"/>
      <point x="423" y="779"/>
      <point x="360" y="779" type="curve" smooth="yes"/>
      <point x="312" y="779"/>
      <point x="268" y="754"/>
      <point x="240" y="715" type="curve"/>
      <point x="291" y="667" type="line"/>
      <point x="302" y="683"/>
      <point x="318" y="698"/>
      <point x="341" y="698" type="curve" smooth="yes"/>
      <point x="358" y="698"/>
      <point x="372" y="691"/>
      <point x="372" y="672" type="curve" smooth="yes"/>
    </contour>
  </outline>
</glyph>
<glyph name="caroncmb" format="2">
  <advance width="600"/>
  <unicode hex="030C"/>
  <anchor x="300" y="569" name="_top"/>
  <outline>
    <contour>
      <point x="421" y="564" type="line"/>
      <point x="555" y="700" type="line"/>
      <point x="438" y="700" type="line"/>
      <point x="305" y="602" type="line"/>
      <point x="411" y="602" type="line"/>
      <point x="312" y="700" type="line"/>
      <point x="201" y="700" type="line"/>
      <point x="287" y="564" type="line"/>
    </contour>
  </outline>
</glyph>
<glyph name="commaturnedabovecmb" format="2">
  <advance width="600"/>
  <unicode hex="0312"/>
  <anchor x="300" y="597" name="_center"/>
  <outline>
    <contour>
      <point x="429.0" y="564.0" type="line"/>
      <point x="453.0" y="700.0" type="line"/>
      <point x="387.0" y="700.0" type="line"/>
      <point x="388.0" y="702.0" type="line" smooth="yes"/>
      <point x="394.0" y="741.0"/>
      <point x="413.0" y="771.0"/>
      <point x="478.0" y="771.0" type="curve"/>
      <point x="489.0" y="834.0" type="line"/>
      <point x="372.0" y="834.0"/>
      <point x="322.0" y="773.0"/>
      <point x="310.0" y="702.0" type="curve" smooth="yes"/>
      <point x="285.0" y="564.0" type="line"/>
    </contour>
  </outline>
</glyph>
<glyph name="horncmb" format="2">
  <advance width="600"/>
  <unicode hex="031B"/>
  <anchor x="204" y="500" name="_horn"/>
  <outline>
    <contour>
      <point x="357" y="586" type="line"/>
      <point x="357" y="579"/>
      <point x="358" y="571"/>
      <point x="358" y="565" type="curve" smooth="yes"/>
      <point x="358.0" y="514"/>
      <point x="342" y="500"/>
      <point x="302" y="500" type="curve" smooth="yes"/>
      <point x="235" y="500" type="line"/>
      <point x="218" y="402" type="line"/>
      <point x="303" y="402" type="line" smooth="yes"/>
      <point x="422" y="402"/>
      <point x="459.0" y="462"/>
      <point x="459" y="556" type="curve" smooth="yes"/>
      <point x="459" y="567"/>
      <point x="458" y="577"/>
      <point x="456" y="586" type="curve"/>
    </contour>
  </outline>
</glyph>
<glyph name="dotbelowcmb" format="2">
  <advance width="600"/>
  <unicode hex="0323"/>
  <anchor x="300" y="-77" name="_stem"/>
  <outline>
    <contour>
      <point x="171" y="-64" type="line"/>
      <point x="147" y="-200" type="line"/>
      <point x="291" y="-200" type="line"/>
      <point x="315" y="-64" type="line"/>
    </contour>
  </outline>
</glyph>
<glyph name="commaaccentbelowcmb" format="2">
  <advance width="600"/>
  <unicode hex="0326"/>
  <anchor x="300" y="-77" name="_center"/>
  <anchor x="300" y="-97" name="_stem"/>
  <outline>
    <contour>
      <point x="171.0" y="-64.0" type="line"/>
      <point x="147.0" y="-200.0" type="line"/>
      <point x="213.0" y="-200.0" type="line"/>
      <point x="212.0" y="-202.0" type="line" smooth="yes"/>
      <point x="206.0" y="-241.0"/>
      <point x="187.0" y="-271.0"/>
      <point x="122.0" y="-271.0" type="curve"/>
      <point x="111.0" y="-334.0" type="line"/>
      <point x="228.0" y="-334.0"/>
      <point x="278.0" y="-273.0"/>
      <point x="290.0" y="-202.0" type="curve" smooth="yes"/>
      <point x="315.0" y="-64.0" type="line"/>
    </contour>
  </outline>
</glyph>
<glyph name="overlaystrokeshortcmb" format="2">
  <advance width="600"/>
  <unicode hex="0335"/>
  <outline>
    <contour>
      <point x="171" y="296" type="line"/>
      <point x="446" y="296" type="line"/>
      <point x="468" y="420" type="line"/>
      <point x="193" y="420" type="line"/>
    </contour>
  </outline>
</glyph>
<glyph name="lmacrondot" format="2">
  <advance width="250"/>
  <unicode hex="1E39"/>
  <outline>
    <contour>
      <point x="81" y="760.0" type="line"/>
      <point x="351" y="760.0" type="line"/>
      <point x="369" y="861.0" type="line"/>
      <point x="99" y="861.0" type="line"/>
    </contour>
    <component base="l"/>
    <component base="dotbelowcmb" xOffset="-175"/>
  </outline>
</glyph>
<glyph name="rlinebelow" format="2">
  <advance width="375"/>
  <unicode hex="1E5F"/>
  <outline>
    <contour>
      <point x="-69" y="-77.0" type="line"/>
      <point x="201" y="-77.0" type="line"/>
      <point x="183" y="-178.0" type="line"/>
      <point x="-87" y="-178.0" type="line"/>
    </contour>
    <component base="r"/>
  </outline>
</glyph>
<glyph name="endash" format="2">
  <advance width="684"/>
  <unicode hex="2013"/>
  <outline>
    <contour>
      <point x="49" y="238" type="line"/>
      <point x="631" y="238" type="line"/>
      <point x="651" y="354" type="line"/>
      <point x="69" y="354" type="line"/>
    </contour>
  </outline>
</glyph>
<glyph name="emdash" format="2">
  <advance width="966"/>
  <unicode hex="2014"/>
  <outline>
    <contour>
      <point x="62" y="238" type="line"/>
      <point x="900" y="238" type="line"/>
      <point x="920" y="354" type="line"/>
      <point x="82" y="354" type="line"/>
    </contour>
  </outline>
</glyph>
<glyph name="dagger" format="2">
  <advance width="342"/>
  <unicode hex="2020"/>
  <outline>
    <contour>
      <point x="119" y="280" type="line"/>
      <point x="231" y="280" type="line"/>
      <point x="305" y="700" type="line"/>
      <point x="193" y="700" type="line"/>
    </contour>
    <contour>
      <point x="76" y="598" type="line"/>
      <point x="60" y="506" type="line"/>
      <point x="370" y="506" type="line"/>
      <point x="386" y="598" type="line"/>
    </contour>
  </outline>
</glyph>
<glyph name="daggerdbl" format="2">
  <advance width="342"/>
  <unicode hex="2021"/>
  <outline>
    <contour>
      <point x="119" y="280" type="line"/>
      <point x="231" y="280" type="line"/>
      <point x="305" y="700" type="line"/>
      <point x="193" y="700" type="line"/>
    </contour>
    <contour>
      <point x="79" y="615" type="line"/>
      <point x="63" y="523" type="line"/>
      <point x="373" y="523" type="line"/>
      <point x="389" y="615" type="line"/>
    </contour>
    <contour>
      <point x="35" y="365" type="line"/>
      <point x="345" y="365" type="line"/>
      <point x="361" y="457" type="line"/>
      <point x="51" y="457" type="line"/>
    </contour>
  </outline>
</glyph>
<glyph name="bullet" format="2">
  <advance width="480"/>
  <unicode hex="2022"/>
  <outline>
    <contour>
      <point x="231" y="116" type="curve" smooth="yes"/>
      <point x="355.0" y="116.0"/>
      <point x="438" y="221"/>
      <point x="438" y="326" type="curve" smooth="yes"/>
      <point x="438" y="424"/>
      <point x="363" y="502"/>
      <point x="259" y="502" type="curve" smooth="yes"/>
      <point x="135.0" y="502.0"/>
      <point x="52" y="397"/>
      <point x="52" y="292" type="curve" smooth="yes"/>
      <point x="52" y="194"/>
      <point x="127" y="116"/>
    </contour>
  </outline>
</glyph>
<glyph name="minute" format="2">
  <advance width="248"/>
  <unicode hex="2032"/>
  <outline>
    <contour>
      <point x="150" y="700" type="line"/>
      <point x="34" y="363" type="line"/>
      <point x="142" y="363" type="line"/>
      <point x="310" y="700" type="line"/>
    </contour>
  </outline>
</glyph>
<glyph name="guilsinglleft" format="2">
  <advance width="316"/>
  <unicode hex="2039"/>
  <outline>
    <contour>
      <point x="339" y="450" type="line"/>
      <point x="194" y="450" type="line"/>
      <point x="24" y="276" type="line"/>
      <point x="16" y="234" type="line"/>
      <point x="126" y="60" type="line"/>
      <point x="257" y="60" type="line"/>
      <point x="118" y="280" type="line"/>
      <point x="124" y="230" type="line"/>
    </contour>
  </outline>
</glyph>
<glyph name="interrobang" format="2">
  <advance width="489"/>
  <unicode hex="203D"/>
  <outline>
    <contour>
      <point x="373" y="678" type="line"/>
      <point x="245" y="682" type="line"/>
      <point x="178" y="217" type="line"/>
      <point x="266" y="217" type="line"/>
    </contour>
    <contour>
      <point x="191" y="217" type="line"/>
      <point x="297" y="217" type="line"/>
      <point x="301" y="235" type="line" smooth="yes"/>
      <point x="311" y="282"/>
      <point x="332" y="305"/>
      <point x="385" y="338" type="curve" smooth="yes"/>
      <point x="459" y="386"/>
      <point x="519" y="448"/>
      <point x="519" y="546" type="curve" smooth="yes"/>
      <point x="519" y="647"/>
      <point x="440" y="712"/>
      <point x="318" y="712" type="curve" smooth="yes"/>
      <point x="188" y="712"/>
      <point x="91" y="638"/>
      <point x="53" y="524" type="curve"/>
      <point x="168" y="492" type="line"/>
      <point x="186" y="553"/>
      <point x="224" y="603"/>
      <point x="298" y="603" type="curve" smooth="yes"/>
      <point x="353" y="603"/>
      <point x="383" y="577"/>
      <point x="383" y="530" type="curve" smooth="yes"/>
      <point x="383" y="497"/>
      <point x="372" y="461"/>
      <point x="303" y="410" type="curve" smooth="yes"/>
      <point x="234" y="359"/>
      <point x="211" y="325"/>
      <point x="196" y="244" type="curve" smooth="yes"/>
    </contour>
    <component base="period" xOffset="109"/>
  </outline>
</glyph>
<glyph name="fraction" format="2">
  <advance width="126"/>
  <unicode hex="2044"/>
  <outline>
    <contour>
      <point x="-311" y="0" type="line"/>
      <point x="-183" y="0" type="line"/>
      <point x="437" y="700" type="line"/>
      <point x="309" y="700" type="line"/>
    </contour>
  </outline>
</glyph>
<glyph name="naira" format="2">
  <advance width="687"/>
  <unicode hex="20A6"/>
  <outline>
    <contour>
      <point x="60" y="392" type="line"/>
      <point x="187" y="392" type="line"/>
      <point x="205" y="492" type="line"/>
      <point x="78" y="492" type="line"/>
    </contour>
    <contour>
      <point x="518" y="229" type="line"/>
      <point x="647" y="229" type="line"/>
      <point x="664" y="329" type="line"/>
      <point x="535" y="329" type="line"/>
    </contour>
    <contour>
      <point x="350" y="392" type="line"/>
      <point x="675" y="392" type="line"/>
      <point x="693" y="492" type="line"/>
      <point x="331" y="492" type="line"/>
    </contour>
    <contour>
      <point x="32" y="229" type="line"/>
      <point x="398" y="229" type="line"/>
      <point x="376" y="329" type="line"/>
      <point x="49" y="329" type="line"/>
    </contour>
    <contour>
      <point x="490" y="118" type="line"/>
      <point x="360" y="700" type="line"/>
      <point x="182" y="700" type="line"/>
      <point x="58" y="0" type="line"/>
      <point x="191" y="0" type="line"/>
      <point x="294" y="580" type="line"/>
      <point x="261" y="580" type="line"/>
      <point x="389" y="0" type="line"/>
      <point x="536" y="0" type="line"/>
      <point x="660" y="700" type="line"/>
      <point x="528" y="700" type="line"/>
      <point x="425" y="118" type="line"/>
    </contour>
  </outline>
</glyph>
<glyph name="dong" format="2">
  <advance width="578"/>
  <unicode hex="20AB"/>
  <outline>
    <contour>
      <point x="210" y="120" type="curve" smooth="yes"/>
      <point x="293" y="120"/>
      <point x="348" y="174"/>
      <point x="382" y="246" type="curve"/>
      <point x="347" y="247" type="line"/>
      <point x="327" y="132" type="line"/>
      <point x="459" y="132" type="line"/>
      <point x="559" y="701" type="line"/>
      <point x="427" y="701" type="line"/>
      <point x="376" y="408" type="line"/>
      <point x="411" y="407" type="line"/>
      <point x="402" y="487"/>
      <point x="361" y="541"/>
      <point x="268" y="541" type="curve" smooth="yes"/>
      <point x="131" y="541"/>
      <point x="50" y="420"/>
      <point x="50" y="289" type="curve" smooth="yes"/>
      <point x="50" y="179"/>
      <point x="121" y="120"/>
    </contour>
    <contour>
      <point x="261" y="216" type="curve" smooth="yes"/>
      <point x="210" y="216"/>
      <point x="185" y="256"/>
      <point x="185" y="308" type="curve" smooth="yes"/>
      <point x="185" y="372"/>
      <point x="224" y="445"/>
      <point x="294" y="445" type="curve" smooth="yes"/>
      <point x="345" y="445"/>
      <point x="371" y="408"/>
      <point x="371" y="356" type="curve" smooth="yes"/>
      <point x="371" y="292"/>
      <point x="331" y="216"/>
    </contour>
    <contour>
      <point x="249" y="569" type="line"/>
      <point x="596" y="569" type="line"/>
      <point x="611" y="659" type="line"/>
      <point x="264" y="659" type="line"/>
    </contour>
    <contour>
      <point x="19" y="0" type="line"/>
      <point x="465" y="0" type="line"/>
      <point x="481" y="90" type="line"/>
      <point x="35" y="90" type="line"/>
    </contour>
  </outline>
</glyph>
<glyph name="Euro" format="2">
  <advance width="627"/>
  <unicode hex="20AC"/>
  <outline>
    <contour>
      <point x="637" y="480" type="line"/>
      <point x="637" y="615"/>
      <point x="567" y="712"/>
      <point x="429" y="712" type="curve" smooth="yes"/>
      <point x="199" y="712"/>
      <point x="94" y="478"/>
      <point x="94" y="253" type="curve" smooth="yes"/>
      <point x="94" y="88"/>
      <point x="174" y="-12"/>
      <point x="320" y="-12" type="curve" smooth="yes"/>
      <point x="450" y="-12"/>
      <point x="552" y="75"/>
      <point x="595" y="202" type="curve"/>
      <point x="470" y="232" type="line"/>
      <point x="438" y="144"/>
      <point x="398" y="107"/>
      <point x="337" y="107" type="curve" smooth="yes"/>
      <point x="275" y="107"/>
      <point x="232" y="147"/>
      <point x="232" y="254" type="curve" smooth="yes"/>
      <point x="232" y="408"/>
      <point x="286" y="593"/>
      <point x="416" y="593" type="curve" smooth="yes"/>
      <point x="477" y="593"/>
      <point x="511" y="555"/>
      <point x="512" y="460" type="curve"/>
    </contour>
    <contour>
      <point x="49" y="379" type="line"/>
      <point x="414" y="379" type="line"/>
      <point x="451" y="473" type="line"/>
      <point x="66" y="473" type="line"/>
    </contour>
    <contour>
      <point x="23" y="233" type="line"/>
      <point x="356" y="233" type="line"/>
      <point x="394" y="327" type="line"/>
      <point x="40" y="327" type="line"/>
    </contour>
  </outline>
</glyph>
<glyph name="cedi" format="2">
  <advance width="577"/>
  <unicode hex="20B5"/>
  <outline>
    <contour>
      <point x="587" y="480" type="line"/>
      <point x="585" y="615"/>
      <point x="525" y="712"/>
      <point x="376" y="712" type="curve" smooth="yes"/>
      <point x="138" y="712"/>
      <point x="42" y="467"/>
      <point x="42" y="253" type="curve" smooth="yes"/>
      <point x="42" y="90"/>
      <point x="120" y="-12"/>
      <point x="269" y="-12" type="curve" smooth="yes"/>
      <point x="398" y="-12"/>
      <point x="500" y="74"/>
      <point x="543" y="201" type="curve"/>
      <point x="416" y="233" type="line"/>
      <point x="384" y="145"/>
      <point x="344" y="107"/>
      <point x="286" y="107" type="curve" smooth="yes"/>
      <point x="224" y="107"/>
      <point x="182" y="150"/>
      <point x="182" y="254" type="curve" smooth="yes"/>
      <point x="182" y="407"/>
      <point x="236" y="591"/>
      <point x="364" y="591" type="curve" smooth="yes"/>
      <point x="422" y="591"/>
      <point x="459" y="557"/>
      <point x="459" y="463" type="curve"/>
    </contour>
    <contour>
      <point x="189" y="-112.0" type="line"/>
      <point x="283" y="-112.0" type="line"/>
      <point x="443" y="797.0" type="line"/>
      <point x="349" y="797.0" type="line"/>
    </contour>
  </outline>
</glyph>
<glyph name="indianrupee" format="2">
  <advance width="589"/>
  <unicode hex="20B9"/>
  <outline>
    <contour>
      <point x="123" y="314" type="line"/>
      <point x="164" y="220"/>
      <point x="237" y="79"/>
      <point x="288" y="0" type="curve"/>
      <point x="446" y="0" type="line"/>
      <point x="446" y="7" type="line"/>
      <point x="397" y="82"/>
      <point x="323" y="221"/>
      <point x="281" y="314" type="curve"/>
    </contour>
    <contour>
      <point x="71" y="443" type="line"/>
      <point x="596" y="443" type="line"/>
      <point x="614" y="540" type="line"/>
      <point x="89" y="540" type="line"/>
    </contour>
    <contour>
      <point x="230" y="396" type="curve" smooth="yes"/>
      <point x="59" y="396" type="line"/>
      <point x="38" y="283" type="line"/>
      <point x="237" y="283" type="line" smooth="yes"/>
      <point x="406" y="283"/>
      <point x="503" y="380"/>
      <point x="503" y="521" type="curve" smooth="yes"/>
      <point x="503" y="560"/>
      <point x="491" y="601"/>
      <point x="448" y="628" type="curve"/>
      <point x="443" y="603" type="line"/>
      <point x="625" y="603" type="line"/>
      <point x="642" y="700" type="line"/>
      <point x="117" y="700" type="line"/>
      <point x="97" y="587" type="line"/>
      <point x="263" y="587" type="line" smooth="yes"/>
      <point x="319" y="587"/>
      <point x="349" y="566"/>
      <point x="349" y="517" type="curve" smooth="yes"/>
      <point x="349" y="456"/>
      <point x="318" y="396"/>
    </contour>
  </outline>
</glyph>
<glyph name="manat" format="2">
  <advance width="620"/>
  <unicode hex="20BC"/>
  <outline>
    <contour>
      <point x="335" y="748" type="line"/>
      <point x="241" y="216" type="line"/>
      <point x="367" y="216" type="line"/>
      <point x="461" y="748" type="line"/>
    </contour>
    <contour>
      <point x="592" y="416" type="line" smooth="yes"/>
      <point x="595" y="434"/>
      <point x="597" y="451"/>
      <point x="597" y="468" type="curve" smooth="yes"/>
      <point x="597.0" y="581"/>
      <point x="522" y="670.0"/>
      <point x="372" y="670" type="curve" smooth="yes"/>
      <point x="212.0" y="670.0"/>
      <point x="110" y="560"/>
      <point x="88" y="429" type="curve" smooth="yes"/>
      <point x="13" y="0" type="line"/>
      <point x="148" y="0" type="line"/>
      <point x="222" y="419" type="line" smooth="yes"/>
      <point x="235" y="489"/>
      <point x="273" y="540"/>
      <point x="355" y="540" type="curve" smooth="yes"/>
      <point x="428.0" y="540.0"/>
      <point x="459.0" y="502"/>
      <point x="459" y="446" type="curve" smooth="yes"/>
      <point x="459" y="434"/>
      <point x="458" y="423"/>
      <point x="456" y="410" type="curve" smooth="yes"/>
      <point x="384" y="0" type="line"/>
      <point x="519" y="0" type="line"/>
    </contour>
  </outline>
</glyph>
<glyph name="bitcoin" format="2">
  <advance width="614"/>
  <unicode hex="20BF"/>
  <outline>
    <contour>
      <point x="154" y="700" type="line"/>
      <point x="31" y="0" type="line"/>
      <point x="170" y="0" type="line"/>
      <point x="293" y="700" type="line"/>
    </contour>
    <contour>
      <point x="260" y="668" type="line"/>
      <point x="355" y="668" type="line"/>
      <point x="378" y="797" type="line"/>
      <point x="283" y="797" type="line"/>
    </contour>
    <contour>
      <point x="391" y="668" type="line"/>
      <point x="486" y="668" type="line"/>
      <point x="509" y="797" type="line"/>
      <point x="414" y="797" type="line"/>
    </contour>
    <contour>
      <point x="123" y="-112" type="line"/>
      <point x="218" y="-112" type="line"/>
      <point x="241" y="17" type="line"/>
      <point x="146" y="17" type="line"/>
    </contour>
    <contour>
      <point x="254" y="-112" type="line"/>
      <point x="349" y="-112" type="line"/>
      <point x="372" y="17" type="line"/>
      <point x="277" y="17" type="line"/>
    </contour>
    <contour>
      <point x="297" y="0" type="line" smooth="yes"/>
      <point x="472" y="0"/>
      <point x="568" y="121"/>
      <point x="568" y="235" type="curve" smooth="yes"/>
      <point x="568" y="308"/>
      <point x="523" y="348"/>
      <point x="475" y="371" type="curve"/>
      <point x="472" y="353" type="line"/>
      <point x="548" y="375"/>
      <point x="606" y="440"/>
      <point x="606" y="536" type="curve" smooth="yes"/>
      <point x="606" y="628"/>
      <point x="542" y="700"/>
      <point x="421" y="700" type="curve" smooth="yes"/>
      <point x="218" y="700" type="line"/>
      <point x="197" y="582" type="line"/>
      <point x="389" y="582" type="line" smooth="yes"/>
      <point x="436" y="582"/>
      <point x="469" y="557"/>
      <point x="469" y="515" type="curve" smooth="yes"/>
      <point x="469" y="468"/>
      <point x="434" y="418"/>
      <point x="364" y="418" type="curve" smooth="yes"/>
      <point x="167" y="418" type="line"/>
      <point x="146" y="300" type="line"/>
      <point x="340" y="300" type="line" smooth="yes"/>
      <point x="386" y="300"/>
      <point x="428" y="274"/>
      <point x="428" y="224" type="curve" smooth="yes"/>
      <point x="428" y="157"/>
      <point x="374" y="119"/>
      <point x="308" y="119" type="curve" smooth="yes"/>
      <point x="115" y="119" type="line"/>
      <point x="94" y="0" type="line"/>
    </contour>
  </outline>
</glyph>
<glyph name="arrowleft" format="2">
  <advance width="782"/>
  <unicode hex="2190"/>
  <outline>
    <contour>
      <point x="747" y="421" type="line"/>
      <point x="119" y="421" type="line"/>
      <point x="119" y="279" type="line"/>
      <point x="747" y="279" type="line"/>
    </contour>
    <contour>
      <point x="35" y="350" type="line"/>
      <point x="373" y="12" type="line"/>
      <point x="471" y="110" type="line"/>
      <point x="230" y="350" type="line"/>
      <point x="471" y="590" type="line"/>
      <point x="373" y="688" type="line"/>
    </contour>
  </outline>
</glyph>
<glyph name="arrowup" format="2">
  <advance width="682"/>
  <unicode hex="2191"/>
  <outline>
    <contour>
      <point x="430" y="0" type="line"/>
      <point x="430" y="628" type="line"/>
      <point x="288" y="628" type="line"/>
      <point x="288" y="0" type="line"/>
    </contour>
    <contour>
      <point x="359" y="712" type="line"/>
      <point x="21" y="374" type="line"/>
      <point x="119" y="276" type="line"/>
      <point x="359" y="517" type="line"/>
      <point x="599" y="276" type="line"/>
      <point x="697" y="374" type="line"/>
    </contour>
  </outline>
</glyph>
<glyph name="arrowright" format="2">
  <advance width="782"/>
  <unicode hex="2192"/>
  <outline>
    <contour>
      <point x="58" y="270" type="line"/>
      <point x="686" y="270" type="line"/>
      <point x="686" y="412" type="line"/>
      <point x="58" y="412" type="line"/>
    </contour>
    <contour>
      <point x="770" y="341" type="line"/>
      <point x="432" y="679" type="line"/>
      <point x="334" y="581" type="line"/>
      <point x="575" y="341" type="line"/>
      <point x="334" y="101" type="line"/>
      <point x="432" y="3" type="line"/>
    </contour>
  </outline>
</glyph>
<glyph name="arrowdown" format="2">
  <advance width="682"/>
  <unicode hex="2193"/>
  <outline>
    <contour>
      <point x="421" y="700" type="line"/>
      <point x="421" y="72" type="line"/>
      <point x="279" y="72" type="line"/>
      <point x="279" y="700" type="line"/>
    </contour>
    <contour>
      <point x="350" y="-12" type="line"/>
      <point x="12" y="326" type="line"/>
      <point x="110" y="424" type="line"/>
      <point x="350" y="183" type="line"/>
      <point x="590" y="424" type="line"/>
      <point x="688" y="326" type="line"/>
    </contour>
  </outline>
</glyph>
<glyph name="arrowNW" format="2">
  <advance width="665"/>
  <unicode hex="2196"/>
  <outline>
    <contour>
      <point x="634" y="148" type="line"/>
      <point x="190" y="592" type="line"/>
      <point x="90" y="492" type="line"/>
      <point x="534" y="48" type="line"/>
    </contour>
    <contour>
      <point x="81" y="602" type="line"/>
      <point x="81" y="124" type="line"/>
      <point x="219" y="124" type="line"/>
      <point x="219" y="464" type="line"/>
      <point x="559" y="464" type="line"/>
      <point x="559" y="602" type="line"/>
    </contour>
  </outline>
</glyph>
<glyph name="arrowNE" format="2">
  <advance width="665"/>
  <unicode hex="2197"/>
  <outline>
    <contour>
      <point x="142" y="54" type="line"/>
      <point x="586" y="498" type="line"/>
      <point x="485" y="598" type="line"/>
      <point x="41" y="154" type="line"/>
    </contour>
    <contour>
      <point x="595" y="607" type="line"/>
      <point x="117" y="607" type="line"/>
      <point x="117" y="469" type="line"/>
      <point x="457" y="469" type="line"/>
      <point x="457" y="129" type="line"/>
      <point x="595" y="129" type="line"/>
    </contour>
  </outline>
</glyph>
<glyph name="arrowSE" format="2">
  <advance width="665"/>
  <unicode hex="2198"/>
  <outline>
    <contour>
      <point x="51" y="543" type="line"/>
      <point x="495" y="99" type="line"/>
      <point x="596" y="199" type="line"/>
      <point x="152" y="643" type="line"/>
    </contour>
    <contour>
      <point x="605" y="89" type="line"/>
      <point x="605" y="567" type="line"/>
      <point x="467" y="567" type="line"/>
      <point x="467" y="227" type="line"/>
      <point x="127" y="227" type="line"/>
      <point x="127" y="89" type="line"/>
    </contour>
  </outline>
</glyph>
<glyph name="arrowSW" format="2">
  <advance width="665"/>
  <unicode hex="2199"/>
  <outline>
    <contour>
      <point x="550" y="637" type="line"/>
      <point x="106" y="193" type="line"/>
      <point x="206" y="93" type="line"/>
      <point x="650" y="537" type="line"/>
    </contour>
    <contour>
      <point x="97" y="84" type="line"/>
      <point x="575" y="84" type="line"/>
      <point x="575" y="222" type="line"/>
      <point x="235" y="222" type="line"/>
      <point x="235" y="562" type="line"/>
      <point x="97" y="562" type="line"/>
    </contour>
  </outline>
</glyph>
<glyph name="minus" format="2">
  <advance width="576"/>
  <unicode hex="2212"/>
  <outline>
    <contour>
      <point x="537" y="280" type="line"/>
      <point x="559" y="400" type="line"/>
      <point x="71" y="400" type="line"/>
      <point x="49" y="280" type="line"/>
    </contour>
  </outline>
</glyph>
<glyph name="approxequal" format="2">
  <advance width="576"/>
  <unicode hex="2248"/>
  <outline>
    <contour>
      <point x="7" y="143" type="curve"/>
      <point x="115" y="143" type="line"/>
      <point x="124" y="174"/>
      <point x="138" y="191"/>
      <point x="167" y="191" type="curve" smooth="yes"/>
      <point x="216" y="191"/>
      <point x="318" y="147"/>
      <point x="388" y="147" type="curve" smooth="yes"/>
      <point x="466" y="147"/>
      <point x="523" y="202"/>
      <point x="549" y="312" type="curve"/>
      <point x="441" y="312" type="line"/>
      <point x="433" y="282"/>
      <point x="419" y="264"/>
      <point x="390" y="264" type="curve" smooth="yes"/>
      <point x="341" y="264"/>
      <point x="238" y="308"/>
      <point x="168" y="308" type="curve" smooth="yes"/>
      <point x="90" y="308"/>
      <point x="34" y="253"/>
    </contour>
    <contour>
      <point x="589" y="536" type="curve"/>
      <point x="481" y="536" type="line"/>
      <point x="472" y="505"/>
      <point x="458" y="488"/>
      <point x="429" y="488" type="curve" smooth="yes"/>
      <point x="380" y="488"/>
      <point x="278" y="532"/>
      <point x="208" y="532" type="curve" smooth="yes"/>
      <point x="130" y="532"/>
      <point x="73" y="477"/>
      <point x="47" y="367" type="curve"/>
      <point x="155" y="367" type="line"/>
      <point x="163" y="397"/>
      <point x="177" y="415"/>
      <point x="206" y="415" type="curve" smooth="yes"/>
      <point x="255" y="415"/>
      <point x="357" y="371"/>
      <point x="427" y="371" type="curve" smooth="yes"/>
      <point x="505" y="371"/>
      <point x="562" y="426"/>
    </contour>
  </outline>
</glyph>
<glyph name="lessequal" format="2">
  <advance width="576"/>
  <unicode hex="2264"/>
  <outline>
    <contour>
      <point x="486" y="0" type="line"/>
      <point x="507" y="120" type="line"/>
      <point x="19" y="120" type="line"/>
      <point x="-2" y="0" type="line"/>
    </contour>
    <contour>
      <point x="83" y="483" type="line"/>
      <point x="61" y="358" type="line"/>
      <point x="514" y="158" type="line"/>
      <point x="535" y="277" type="line"/>
      <point x="145" y="447" type="line"/>
      <point x="133" y="378" type="line"/>
      <point x="583" y="548" type="line"/>
      <point x="606" y="683" type="line"/>
    </contour>
  </outline>
</glyph>
<glyph name="greaterequal" format="2">
  <advance width="576"/>
  <unicode hex="2265"/>
  <outline>
    <contour>
      <point x="-2" y="0" type="line"/>
      <point x="19" y="120" type="line"/>
      <point x="507" y="120" type="line"/>
      <point x="486" y="0" type="line"/>
    </contour>
    <contour>
      <point x="549" y="358" type="line"/>
      <point x="571" y="483" type="line"/>
      <point x="118" y="683" type="line"/>
      <point x="97" y="564" type="line"/>
      <point x="487" y="394" type="line"/>
      <point x="499" y="463" type="line"/>
      <point x="49" y="293" type="line"/>
      <point x="26" y="158" type="line"/>
    </contour>
  </outline>
</glyph>
<glyph name="circlewhite" format="2">
  <advance width="828"/>
  <unicode hex="25CB"/>
  <outline>
    <contour>
      <point x="234.0" y="712.0"/>
      <point x="63.0" y="528"/>
      <point x="63" y="303" type="curve" smooth="yes"/>
      <point x="63" y="125"/>
      <point x="193" y="-12"/>
      <point x="380" y="-12" type="curve" smooth="yes"/>
      <point x="622.0" y="-12.0"/>
      <point x="793.0" y="174"/>
      <point x="793" y="399" type="curve" smooth="yes"/>
      <point x="793" y="577"/>
      <point x="663" y="712"/>
      <point x="476" y="712" type="curve" smooth="yes"/>
    </contour>
    <contour>
      <point x="701.0" y="213.0"/>
      <point x="567" y="73.0"/>
      <point x="390" y="73" type="curve" smooth="yes"/>
      <point x="249" y="73"/>
      <point x="155" y="170"/>
      <point x="155" y="308" type="curve" smooth="yes"/>
      <point x="155.0" y="489.0"/>
      <point x="289" y="627.0"/>
      <point x="466" y="627" type="curve" smooth="yes"/>
      <point x="607" y="627"/>
      <point x="701" y="532"/>
      <point x="701" y="394" type="curve" smooth="yes"/>
    </contour>
  </outline>
</glyph>
<glyph name="threesanscircled" format="2">
  <advance width="828"/>
  <unicode hex="2782"/>
  <outline>
    <contour>
      <point x="257" y="294" type="line"/>
      <point x="254" y="282"/>
      <point x="252" y="271"/>
      <point x="252" y="260" type="curve" smooth="yes"/>
      <point x="252" y="186"/>
      <point x="317" y="148"/>
      <point x="403" y="148" type="curve" smooth="yes"/>
      <point x="512" y="148"/>
      <point x="573" y="208"/>
      <point x="573" y="281" type="curve" smooth="yes"/>
      <point x="573" y="320"/>
      <point x="550" y="344"/>
      <point x="513" y="356" type="curve"/>
      <point x="552" y="367"/>
      <point x="593" y="399"/>
      <point x="593" y="454" type="curve" smooth="yes"/>
      <point x="593" y="505"/>
      <point x="555" y="552"/>
      <point x="454" y="552" type="curve" smooth="yes"/>
      <point x="364" y="552"/>
      <point x="293" y="505"/>
      <point x="284" y="413" type="curve"/>
      <point x="392" y="420" type="line"/>
      <point x="393" y="447"/>
      <point x="413" y="467"/>
      <point x="442" y="467" type="curve" smooth="yes"/>
      <point x="458" y="467"/>
      <point x="479" y="459"/>
      <point x="479" y="435" type="curve" smooth="yes"/>
      <point x="479" y="412"/>
      <point x="461" y="395"/>
      <point x="436" y="395" type="curve" smooth="yes"/>
      <point x="400" y="395" type="line"/>
      <point x="387" y="317" type="line"/>
      <point x="421" y="317" type="line" smooth="yes"/>
      <point x="446" y="317"/>
      <point x="462" y="306"/>
      <point x="462" y="282" type="curve" smooth="yes"/>
      <point x="462" y="256"/>
      <point x="445" y="233"/>
      <point x="409" y="233" type="curve" smooth="yes"/>
      <point x="381" y="233"/>
      <point x="363" y="247"/>
      <point x="363" y="269" type="curve" smooth="yes"/>
      <point x="363" y="274"/>
      <point x="364" y="280"/>
      <point x="366" y="287" type="curve"/>
    </contour>
    <component base="circlewhite"/>
  </outline>
</glyph>
<glyph name="foursanscircled" format="2">
  <advance width="828"/>
  <unicode hex="2783"/>
  <outline>
    <contour>
      <point x="562" y="546" type="line"/>
      <point x="433" y="546" type="line"/>
      <point x="234" y="326" type="line"/>
      <point x="218" y="235" type="line"/>
      <point x="397" y="235" type="line"/>
      <point x="383" y="154" type="line"/>
      <point x="492" y="154" type="line"/>
      <point x="506" y="235" type="line"/>
      <point x="569" y="235" type="line"/>
      <point x="584" y="322" type="line"/>
      <point x="522" y="322" type="line"/>
    </contour>
    <contour>
      <point x="340" y="322" type="line"/>
      <point x="431" y="423" type="line"/>
      <point x="413" y="322" type="line"/>
    </contour>
    <component base="circlewhite"/>
  </outline>
</glyph>
<glyph name="fivesanscircled" format="2">
  <advance width="828"/>
  <unicode hex="2784"/>
  <outline>
    <contour>
      <point x="568" y="314" type="curve" smooth="yes"/>
      <point x="568" y="377"/>
      <point x="530" y="420"/>
      <point x="461" y="420" type="curve" smooth="yes"/>
      <point x="432" y="420"/>
      <point x="409" y="412"/>
      <point x="390" y="400" type="curve"/>
      <point x="404" y="454" type="line"/>
      <point x="582" y="454" type="line"/>
      <point x="598" y="546" type="line"/>
      <point x="328" y="546" type="line"/>
      <point x="272" y="327" type="line"/>
      <point x="375" y="316" type="line"/>
      <point x="384" y="328"/>
      <point x="398" y="339"/>
      <point x="418" y="339" type="curve" smooth="yes"/>
      <point x="443" y="339"/>
      <point x="455" y="321"/>
      <point x="455" y="297" type="curve" smooth="yes"/>
      <point x="455" y="266"/>
      <point x="436" y="233"/>
      <point x="401" y="233" type="curve" smooth="yes"/>
      <point x="375" y="233"/>
      <point x="360" y="252"/>
      <point x="365" y="280" type="curve"/>
      <point x="253" y="294" type="line"/>
      <point x="252" y="287"/>
      <point x="251" y="278"/>
      <point x="251" y="269" type="curve" smooth="yes"/>
      <point x="251" y="189"/>
      <point x="312" y="148"/>
      <point x="400" y="148" type="curve" smooth="yes"/>
      <point x="523" y="148"/>
      <point x="568" y="231"/>
    </contour>
    <component base="circlewhite"/>
  </outline>
</glyph>
<glyph name="sevensanscircled" format="2">
  <advance width="828"/>
  <unicode hex="2786"/>
  <outline>
    <contour>
      <point x="305" y="546" type="line"/>
      <point x="276" y="385" type="line"/>
      <point x="377" y="385" type="line"/>
      <point x="390" y="456" type="line"/>
      <point x="483" y="456" type="line"/>
      <point x="388" y="361"/>
      <point x="318" y="270"/>
      <point x="292" y="154" type="curve"/>
      <point x="410" y="154" type="line"/>
      <point x="444" y="285"/>
      <point x="514" y="375"/>
      <point x="619" y="480" type="curve"/>
      <point x="631" y="546" type="line"/>
    </contour>
    <component base="circlewhite"/>
  </outline>
</glyph>
<glyph name="eightsanscircled" format="2">
  <advance width="828"/>
  <unicode hex="2787"/>
  <outline>
    <contour>
      <point x="576" y="279" type="curve" smooth="yes"/>
      <point x="576" y="320"/>
      <point x="551" y="347"/>
      <point x="517" y="360" type="curve"/>
      <point x="558" y="372"/>
      <point x="593" y="404"/>
      <point x="593" y="455" type="curve" smooth="yes"/>
      <point x="593" y="511"/>
      <point x="544" y="552"/>
      <point x="452" y="552" type="curve" smooth="yes"/>
      <point x="348" y="552"/>
      <point x="294" y="497"/>
      <point x="294" y="435" type="curve" smooth="yes"/>
      <point x="294" y="399"/>
      <point x="313" y="377"/>
      <point x="341" y="366" type="curve"/>
      <point x="291" y="352"/>
      <point x="250" y="315"/>
      <point x="250" y="257" type="curve" smooth="yes"/>
      <point x="250" y="192"/>
      <point x="304" y="148"/>
      <point x="403" y="148" type="curve" smooth="yes"/>
      <point x="522" y="148"/>
      <point x="576" y="218"/>
    </contour>
    <contour>
      <point x="399" y="434" type="curve" smooth="yes"/>
      <point x="399" y="454"/>
      <point x="416" y="474"/>
      <point x="446" y="474" type="curve" smooth="yes"/>
      <point x="471" y="474"/>
      <point x="486" y="460"/>
      <point x="486" y="441" type="curve" smooth="yes"/>
      <point x="486" y="421"/>
      <point x="469" y="400"/>
      <point x="439" y="400" type="curve" smooth="yes"/>
      <point x="414" y="400"/>
      <point x="399" y="415"/>
    </contour>
    <contour>
      <point x="468" y="282" type="curve" smooth="yes"/>
      <point x="468" y="256"/>
      <point x="448" y="226"/>
      <point x="410" y="226" type="curve" smooth="yes"/>
      <point x="380" y="226"/>
      <point x="360" y="244"/>
      <point x="360" y="269" type="curve" smooth="yes"/>
      <point x="360" y="295"/>
      <point x="380" y="324"/>
      <point x="418" y="324" type="curve" smooth="yes"/>
      <point x="448" y="324"/>
      <point x="468" y="307"/>
    </contour>
    <component base="circlewhite"/>
  </outline>
</glyph>
<glyph name="tensanscircled" format="2">
  <advance width="828"/>
  <unicode hex="2789"/>
  <outline>
    <contour>
      <point x="214" y="154" type="line"/>
      <point x="320" y="154" type="line"/>
      <point x="390" y="546" type="line"/>
      <point x="293" y="546" type="line"/>
      <point x="284" y="499"/>
      <point x="268" y="479"/>
      <point x="213" y="479" type="curve"/>
      <point x="198" y="395" type="line"/>
      <point x="257" y="395" type="line"/>
    </contour>
    <contour>
      <point x="485" y="147" type="curve" smooth="yes"/>
      <point x="605" y="147.0"/>
      <point x="665" y="285"/>
      <point x="665" y="407" type="curve" smooth="yes"/>
      <point x="665" y="497"/>
      <point x="623" y="551"/>
      <point x="547" y="551" type="curve" smooth="yes"/>
      <point x="427" y="551.0"/>
      <point x="367" y="413"/>
      <point x="367" y="291" type="curve" smooth="yes"/>
      <point x="367" y="201"/>
      <point x="409" y="147"/>
    </contour>
    <contour>
      <point x="497" y="237" type="curve" smooth="yes"/>
      <point x="479" y="237"/>
      <point x="471" y="253"/>
      <point x="471" y="285" type="curve" smooth="yes"/>
      <point x="471.0" y="351"/>
      <point x="493" y="461.0"/>
      <point x="535" y="461" type="curve" smooth="yes"/>
      <point x="553" y="461"/>
      <point x="561" y="445"/>
      <point x="561" y="413" type="curve" smooth="yes"/>
      <point x="561.0" y="347"/>
      <point x="539" y="237.0"/>
    </contour>
    <component base="circlewhite"/>
  </outline>
</glyph>
<glyph name="fivesansnegativecircled" format="2">
  <advance width="828"/>
  <unicode hex="278E"/>
  <outline>
    <contour>
      <point x="568" y="314" type="curve" smooth="yes"/>
      <point x="568" y="231"/>
      <point x="523" y="148"/>
      <point x="400" y="148" type="curve" smooth="yes"/>
      <point x="312" y="148"/>
      <point x="251" y="189"/>
      <point x="251" y="269" type="curve" smooth="yes"/>
      <point x="251" y="278"/>
      <point x="252" y="287"/>
      <point x="253" y="294" type="curve"/>
      <point x="365" y="280" type="line"/>
      <point x="360" y="252"/>
      <point x="375" y="233"/>
      <point x="401" y="233" type="curve" smooth="yes"/>
      <point x="436" y="233"/>
      <point x="455" y="266"/>
      <point x="455" y="297" type="curve" smooth="yes"/>
      <point x="455" y="321"/>
      <point x="443" y="339"/>
      <point x="418" y="339" type="curve" smooth="yes"/>
      <point x="398" y="339"/>
      <point x="384" y="328"/>
      <point x="375" y="316" type="curve"/>
      <point x="272" y="327" type="line"/>
      <point x="328" y="546" type="line"/>
      <point x="598" y="546" type="line"/>
      <point x="582" y="454" type="line"/>
      <point x="404" y="454" type="line"/>
      <point x="390" y="400" type="line"/>
      <point x="409" y="412"/>
      <point x="432" y="420"/>
      <point x="461" y="420" type="curve" smooth="yes"/>
      <point x="530" y="420"/>
      <point x="568" y="377"/>
    </contour>
    <component base="circleblack"/>
  </outline>
</glyph>
<glyph name="sixsansnegativecircled" format="2">
  <advance width="828"/>
  <unicode hex="278F"/>
  <outline>
    <contour>
      <point x="397" y="149" type="curve" smooth="yes"/>
      <point x="304" y="149"/>
      <point x="256" y="201"/>
      <point x="256" y="287" type="curve" smooth="yes"/>
      <point x="256" y="305"/>
      <point x="258" y="325"/>
      <point x="262" y="346" type="curve" smooth="yes"/>
      <point x="284" y="472"/>
      <point x="361" y="552"/>
      <point x="466" y="552" type="curve"/>
      <point x="545" y="552"/>
      <point x="588" y="512"/>
      <point x="588" y="444" type="curve" smooth="yes"/>
      <point x="588" y="439"/>
      <point x="587" y="431"/>
      <point x="586" y="425" type="curve"/>
      <point x="479" y="436" type="line"/>
      <point x="482" y="454"/>
      <point x="472" y="465"/>
      <point x="454" y="465" type="curve" smooth="yes"/>
      <point x="428" y="465"/>
      <point x="398" y="442"/>
      <point x="382" y="388" type="curve"/>
      <point x="404" y="405"/>
      <point x="432" y="415"/>
      <point x="464" y="415" type="curve" smooth="yes"/>
      <point x="531" y="415"/>
      <point x="571" y="377"/>
      <point x="571" y="312" type="curve" smooth="yes"/>
      <point x="571" y="234"/>
      <point x="515" y="149"/>
    </contour>
    <contour>
      <point x="366" y="274" type="curve" smooth="yes"/>
      <point x="366" y="247"/>
      <point x="380" y="230"/>
      <point x="404" y="230" type="curve" smooth="yes"/>
      <point x="441" y="230"/>
      <point x="458" y="269"/>
      <point x="458" y="298" type="curve" smooth="yes"/>
      <point x="458" y="325"/>
      <point x="444" y="340"/>
      <point x="421" y="340" type="curve" smooth="yes"/>
      <point x="384" y="340"/>
      <point x="366" y="303"/>
    </contour>
    <component base="circleblack"/>
  </outline>
</glyph>
<glyph name="sevensansnegativecircled" format="2">
  <advance width="828"/>
  <unicode hex="2790"/>
  <outline>
    <contour>
      <point x="305" y="546" type="line"/>
      <point x="631" y="546" type="line"/>
      <point x="619" y="480" type="line"/>
      <point x="514" y="375"/>
      <point x="444" y="285"/>
      <point x="410" y="154" type="curve"/>
      <point x="292" y="154" type="line"/>
      <point x="318" y="270"/>
      <point x="388" y="361"/>
      <point x="483" y="456" type="curve"/>
      <point x="390" y="456" type="line"/>
      <point x="377" y="385" type="line"/>
      <point x="276" y="385" type="line"/>
    </contour>
    <component base="circleblack"/>
  </outline>
</glyph>
<glyph name="R.alt1" format="2">
  <advance width="676"/>
  <guideline x="356" y="830" angle="90.0" name="center" identifier="WNG5VRMWci"/>
  <outline>
    <contour>
      <point x="147" y="700" type="line"/>
      <point x="23" y="0" type="line"/>
      <point x="173" y="0" type="line"/>
      <point x="297" y="700" type="line"/>
    </contour>
    <contour>
      <point x="695" y="519" type="curve" smooth="yes"/>
      <point x="695.0" y="638.0"/>
      <point x="622.0" y="700.0"/>
      <point x="487" y="700" type="curve" smooth="yes"/>
      <point x="225" y="700" type="line"/>
      <point x="203" y="577" type="line"/>
      <point x="452" y="577" type="line" smooth="yes"/>
      <point x="508.0" y="577.0"/>
      <point x="538" y="552"/>
      <point x="538" y="503" type="curve" smooth="yes"/>
      <point x="538" y="444"/>
      <point x="495.0" y="399.0"/>
      <point x="421" y="399" type="curve" smooth="yes"/>
      <point x="167" y="399" type="line"/>
      <point x="145" y="277" type="line"/>
      <point x="431" y="277" type="line" smooth="yes"/>
      <point x="456" y="277"/>
      <point x="474" y="257"/>
      <point x="474" y="211" type="curve" smooth="yes"/>
      <point x="474" y="187"/>
      <point x="453" y="77"/>
      <point x="453" y="46" type="curve" smooth="yes"/>
      <point x="453" y="28"/>
      <point x="456" y="13"/>
      <point x="465" y="0" type="curve"/>
      <point x="617" y="0" type="line"/>
      <point x="620" y="17" type="line"/>
      <point x="610" y="24"/>
      <point x="607" y="39"/>
      <point x="607" y="60" type="curve" smooth="yes"/>
      <point x="607" y="97"/>
      <point x="624" y="198"/>
      <point x="624" y="220" type="curve" smooth="yes"/>
      <point x="624" y="278"/>
      <point x="591" y="314"/>
      <point x="527" y="330" type="curve"/>
      <point x="522" y="303" type="line"/>
      <point x="646" y="324"/>
      <point x="695" y="421"/>
    </contour>
  </outline>
</glyph>
<glyph name=".notdef" format="2">
  <advance width="664"/>
  <outline>
    <contour>
      <point x="180" y="620.0" type="line"/>
      <point x="619" y="620.0" type="line"/>
      <point x="633" y="700.0" type="line"/>
      <point x="194" y="700.0" type="line"/>
    </contour>
    <contour>
      <point x="84" y="80.0" type="line"/>
      <point x="70" y="0.0" type="line"/>
      <point x="509" y="0.0" type="line"/>
      <point x="523" y="80.0" type="line"/>
    </contour>
    <contour>
      <point x="567" y="700.0" type="line"/>
      <point x="443" y="0.0" type="line"/>
      <point x="523" y="0.0" type="line"/>
      <point x="647" y="700.0" type="line"/>
    </contour>
    <contour>
      <point x="53" y="0.0" type="line"/>
      <point x="133" y="0.0" type="line"/>
      <point x="257" y="700.0" type="line"/>
      <point x="177" y="700.0" type="line"/>
    </contour>
    <contour>
      <point x="211" y="278.0" type="line"/>
      <point x="256" y="224.0" type="line"/>
      <point x="489" y="422.0" type="line"/>
      <point x="444" y="476.0" type="line"/>
    </contour>
    <contour>
      <point x="296" y="472.0" type="line"/>
      <point x="241" y="426.0" type="line"/>
      <point x="404" y="228.0" type="line"/>
      <point x="459" y="274.0" type="line"/>
    </contour>
  </outline>
</glyph>
<glyph name="a.alt1" format="2">
  <advance width="535"/>
  <guideline x="266" y="502" angle="90" name="center" identifier="a5zloqlQng"/>
  <anchor x="467" y="0" name="ogonek"/>
  <outline>
    <contour>
      <point x="455" y="114" type="curve" smooth="yes"/>
      <point x="495" y="338" type="line" smooth="yes"/>
      <point x="497" y="350"/>
      <point x="498" y="362"/>
      <point x="498" y="373" type="curve" smooth="yes"/>
      <point x="498" y="461"/>
      <point x="426" y="512"/>
      <point x="298" y="512" type="curve" smooth="yes"/>
      <point x="153" y="512"/>
      <point x="83" y="432"/>
      <point x="65" y="357" type="curve"/>
      <point x="199" y="328" type="line"/>
      <point x="209" y="374"/>
      <point x="230" y="405"/>
      <point x="289" y="405" type="curve" smooth="yes"/>
      <point x="335" y="405"/>
      <point x="358" y="386"/>
      <point x="358" y="353" type="curve" smooth="yes"/>
      <point x="358" y="347"/>
      <point x="357" y="340"/>
      <point x="356" y="333" type="curve" smooth="yes"/>
      <point x="330" y="183" type="line" smooth="yes"/>
      <point x="320" y="129"/>
      <point x="269" y="91"/>
      <point x="213" y="91" type="curve" smooth="yes"/>
      <point x="172" y="91"/>
      <point x="148" y="112"/>
      <point x="148" y="145" type="curve" smooth="yes"/>
      <point x="148" y="179"/>
      <point x="175" y="205"/>
      <point x="250" y="211" type="curve" smooth="yes"/>
      <point x="407" y="223" type="line"/>
      <point x="424" y="317" type="line"/>
      <point x="207" y="301" type="line" smooth="yes"/>
      <point x="84" y="292"/>
      <point x="7" y="226"/>
      <point x="7" y="127" type="curve" smooth="yes"/>
      <point x="7" y="41"/>
      <point x="72" y="-12"/>
      <point x="170" y="-12" type="curve" smooth="yes"/>
      <point x="255" y="-12"/>
      <point x="315" y="29"/>
      <point x="361" y="96" type="curve"/>
      <point x="327" y="100" type="line"/>
      <point x="320" y="65"/>
      <point x="316" y="32"/>
      <point x="315" y="0" type="curve"/>
      <point x="443" y="0" type="line"/>
      <point x="443" y="36"/>
      <point x="447" y="67"/>
    </contour>
  </outline>
</glyph>
<glyph name="acutecmb.uc" format="2">
  <advance width="600"/>
  <anchor x="270" y="771" name="center"/>
  <anchor x="270" y="761" name="_acute"/>
  <anchor x="270" y="771" name="center"/>
  <outline>
    <contour>
      <point x="397" y="892" type="line"/>
      <point x="546" y="892" type="line"/>
      <point x="413" y="760" type="line"/>
      <point x="295" y="760" type="line"/>
    </contour>
  </outline>
</glyph>
<glyph name="backslash.uc" format="2">
  <advance width="453"/>
  <outline>
    <contour>
      <point x="216" y="745" type="line"/>
      <point x="424" y="-83" type="line"/>
      <point x="284" y="-83" type="line"/>
      <point x="76" y="745" type="line"/>
    </contour>
  </outline>
</glyph>
<glyph name="bar.uc" format="2">
  <advance width="243"/>
  <outline>
    <contour>
      <point x="137" y="745" type="line"/>
      <point x="-9" y="-83" type="line"/>
      <point x="134" y="-83" type="line"/>
      <point x="280" y="745" type="line"/>
    </contour>
  </outline>
</glyph>
<glyph name="bracketleft.uc" format="2">
  <advance width="352"/>
  <outline>
    <contour>
      <point x="14" y="-83" type="line"/>
      <point x="279" y="-83" type="line"/>
      <point x="298" y="24" type="line"/>
      <point x="178" y="24" type="line"/>
      <point x="286" y="638" type="line"/>
      <point x="406" y="638" type="line"/>
      <point x="425" y="745" type="line"/>
      <point x="160" y="745" type="line"/>
    </contour>
  </outline>
</glyph>
<glyph name="brevecmb.uc" format="2">
  <advance width="600"/>
  <outline>
    <contour>
      <point x="253" y="895" type="line"/>
      <point x="240" y="824"/>
      <point x="286" y="754"/>
      <point x="396" y="754" type="curve" smooth="yes"/>
      <point x="503" y="754"/>
      <point x="565" y="823"/>
      <point x="577" y="895" type="curve"/>
      <point x="469" y="895" type="line"/>
      <point x="464" y="865"/>
      <point x="441" y="844"/>
      <point x="407" y="844" type="curve" smooth="yes"/>
      <point x="373" y="844"/>
      <point x="355" y="866"/>
      <point x="361" y="895" type="curve"/>
    </contour>
  </outline>
</glyph>
<glyph name="brokenbar.uc" format="2">
  <advance width="243"/>
  <outline>
    <contour>
      <point x="137" y="745" type="line"/>
      <point x="73" y="382" type="line"/>
      <point x="216" y="382" type="line"/>
      <point x="280" y="745" type="line"/>
    </contour>
    <contour>
      <point x="55" y="280" type="line"/>
      <point x="-9" y="-83" type="line"/>
      <point x="134" y="-83" type="line"/>
      <point x="198" y="280" type="line"/>
    </contour>
  </outline>
</glyph>
<glyph name="bullet.large" format="2">
  <advance width="638"/>
  <outline>
    <contour>
      <point x="308" y="19" type="curve" smooth="yes"/>
      <point x="475" y="19"/>
      <point x="618" y="156"/>
      <point x="618" y="328" type="curve" smooth="yes"/>
      <point x="618" y="481"/>
      <point x="498" y="599"/>
      <point x="346" y="599" type="curve" smooth="yes"/>
      <point x="179" y="599"/>
      <point x="36" y="462"/>
      <point x="36" y="290" type="curve" smooth="yes"/>
      <point x="36" y="137"/>
      <point x="156" y="19"/>
    </contour>
  </outline>
</glyph>
<glyph name="bullet.medium" format="2">
  <advance width="558"/>
  <outline>
    <contour>
      <point x="274" y="68" type="curve" smooth="yes"/>
      <point x="425" y="68"/>
      <point x="531" y="195"/>
      <point x="531" y="326" type="curve" smooth="yes"/>
      <point x="531" y="449"/>
      <point x="433" y="550"/>
      <point x="304" y="550" type="curve" smooth="yes"/>
      <point x="153" y="550"/>
      <point x="47" y="423"/>
      <point x="47" y="292" type="curve" smooth="yes"/>
      <point x="47" y="169"/>
      <point x="145" y="68"/>
    </contour>
  </outline>
</glyph>
<glyph name="caroncmb.ucalt" format="2">
  <advance width="600"/>
  <anchor x="256" y="700.0" name="_caronalt"/>
  <outline>
    <contour>
      <point x="336.0" y="700.0" type="line"/>
      <point x="283.0" y="434.0" type="line"/>
      <point x="394.0" y="434.0" type="line"/>
      <point x="474.0" y="700.0" type="line"/>
    </contour>
  </outline>
</glyph>
<glyph name="circumflexcmb.uc" format="2">
  <advance width="600"/>
  <outline>
    <contour>
      <point x="344" y="892" type="line"/>
      <point x="200" y="760" type="line"/>
      <point x="327" y="760" type="line"/>
      <point x="463" y="845" type="line"/>
      <point x="355" y="845" type="line"/>
      <point x="461" y="760" type="line"/>
      <point x="580" y="760" type="line"/>
      <point x="484" y="892" type="line"/>
    </contour>
  </outline>
</glyph>
<glyph name="comma.tab" format="2">
  <advance width="600"/>
  <outline>
    <contour>
      <point x="206" y="179" type="line"/>
      <point x="175" y="0" type="line"/>
      <point x="254" y="0" type="line"/>
      <point x="251" y="-13" type="line" smooth="yes"/>
      <point x="239" y="-67"/>
      <point x="211" y="-100"/>
      <point x="135" y="-100" type="curve"/>
      <point x="124" y="-162" type="line"/>
      <point x="265" y="-162"/>
      <point x="312" y="-72"/>
      <point x="323" y="-12" type="curve" smooth="yes"/>
      <point x="357" y="179" type="line"/>
    </contour>
  </outline>
</glyph>
<glyph name="dieresiscmb.uc" format="2">
  <advance width="600"/>
  <outline>
    <contour>
      <point x="234" y="899" type="line"/>
      <point x="210" y="760" type="line"/>
      <point x="359" y="760" type="line"/>
      <point x="383" y="899" type="line"/>
    </contour>
    <contour>
      <point x="445" y="899" type="line"/>
      <point x="421" y="760" type="line"/>
      <point x="570" y="760" type="line"/>
      <point x="594" y="899" type="line"/>
    </contour>
  </outline>
</glyph>
<glyph name="dotaccentcmb.uc" format="2">
  <advance width="600"/>
  <outline>
    <contour>
      <point x="339" y="899" type="line"/>
      <point x="315" y="760" type="line"/>
      <point x="465" y="760" type="line"/>
      <point x="489" y="899" type="line"/>
    </contour>
  </outline>
</glyph>
<glyph name="emdash.uc" format="2">
  <advance width="966"/>
  <outline>
    <contour>
      <point x="68" y="276" type="line"/>
      <point x="906" y="276" type="line"/>
      <point x="928" y="396" type="line"/>
      <point x="90" y="396" type="line"/>
    </contour>
  </outline>
</glyph>
<glyph name="endash.uc" format="2">
  <advance width="684"/>
  <outline>
    <contour>
      <point x="54" y="276" type="line"/>
      <point x="636" y="276" type="line"/>
      <point x="658" y="396" type="line"/>
      <point x="76" y="396" type="line"/>
    </contour>
  </outline>
</glyph>
<glyph name="four.num" format="2">
  <advance width="387"/>
  <outline>
    <contour>
      <point x="384" y="700" type="line"/>
      <point x="255" y="700" type="line"/>
      <point x="56" y="480" type="line"/>
      <point x="40" y="389" type="line"/>
      <point x="391" y="389" type="line"/>
      <point x="406" y="476" type="line"/>
      <point x="103" y="476" type="line"/>
      <point x="134" y="445" type="line"/>
      <point x="344" y="678" type="line"/>
      <point x="271" y="678" type="line"/>
      <point x="205" y="308" type="line"/>
      <point x="314" y="308" type="line"/>
    </contour>
  </outline>
</glyph>
<glyph name="gravecmb.uc" format="2">
  <advance width="600"/>
  <anchor x="330" y="771" name="center"/>
  <outline>
    <contour>
      <point x="424" y="892" type="line"/>
      <point x="478" y="760" type="line"/>
      <point x="374" y="760" type="line"/>
      <point x="289" y="892" type="line"/>
    </contour>
  </outline>
</glyph>
<glyph name="hungarumlautcmb.uc" format="2">
  <advance width="600"/>
  <anchor x="266" y="771" name="center"/>
  <outline>
    <contour>
      <point x="282" y="892" type="line"/>
      <point x="429" y="892" type="line"/>
      <point x="320" y="760" type="line"/>
      <point x="204" y="760" type="line"/>
    </contour>
    <contour>
      <point x="458" y="892" type="line"/>
      <point x="605" y="892" type="line"/>
      <point x="496" y="760" type="line"/>
      <point x="380" y="760" type="line"/>
    </contour>
  </outline>
</glyph>
<glyph name="hyphen.uc" format="2">
  <advance width="424"/>
  <outline>
    <contour>
      <point x="48" y="265" type="line"/>
      <point x="372" y="265" type="line"/>
      <point x="398" y="407" type="line"/>
      <point x="74" y="407" type="line"/>
    </contour>
  </outline>
</glyph>
<glyph name="macroncmb.uc" format="2">
  <advance width="600"/>
  <outline>
    <contour>
      <point x="236" y="760" type="line"/>
      <point x="550" y="760" type="line"/>
      <point x="568" y="860" type="line"/>
      <point x="254" y="860" type="line"/>
    </contour>
  </outline>
</glyph>
<glyph name="one.num" format="2">
  <advance width="285"/>
  <outline>
    <contour>
      <point x="195" y="700" type="line"/>
      <point x="183" y="632"/>
      <point x="160" y="611"/>
      <point x="74" y="611" type="curve"/>
      <point x="59" y="527" type="line"/>
      <point x="218" y="527" type="line"/>
      <point x="168" y="601" type="line"/>
      <point x="116" y="308" type="line"/>
      <point x="226" y="308" type="line"/>
      <point x="296" y="700" type="line"/>
    </contour>
  </outline>
</glyph>
<glyph name="one.tab" format="2">
  <advance width="600"/>
  <outline>
    <contour>
      <point x="346" y="700" type="line"/>
      <point x="326" y="589"/>
      <point x="277" y="555"/>
      <point x="118" y="555" type="curve"/>
      <point x="100" y="450" type="line"/>
      <point x="374" y="450" type="line"/>
      <point x="307" y="540" type="line"/>
      <point x="211" y="0" type="line"/>
      <point x="354" y="0" type="line"/>
      <point x="478" y="700" type="line"/>
    </contour>
    <contour>
      <point x="20" y="0" type="line"/>
      <point x="519" y="0" type="line"/>
      <point x="540" y="120" type="line"/>
      <point x="41" y="120" type="line"/>
    </contour>
  </outline>
</glyph>
<glyph name="parenleft.uc" format="2">
  <advance width="379"/>
  <outline>
    <contour>
      <point x="193" y="424"/>
      <point x="291" y="597"/>
      <point x="493" y="745" type="curve"/>
      <point x="335" y="745" type="line"/>
      <point x="155" y="617"/>
      <point x="39" y="434"/>
      <point x="39" y="269" type="curve" smooth="yes"/>
      <point x="39" y="147"/>
      <point x="93" y="17"/>
      <point x="189" y="-83" type="curve"/>
      <point x="334" y="-83" type="line"/>
      <point x="240" y="19"/>
      <point x="193" y="139"/>
      <point x="193" y="256" type="curve" smooth="yes"/>
    </contour>
  </outline>
</glyph>
<glyph name="period.tab" format="2">
  <advance width="600"/>
  <outline>
    <contour>
      <point x="206" y="179" type="line"/>
      <point x="174" y="0" type="line"/>
      <point x="325" y="0" type="line"/>
      <point x="357" y="179" type="line"/>
    </contour>
  </outline>
</glyph>
<glyph name="ringcmb.uc" format="2">
  <advance width="600"/>
  <outline>
    <contour>
      <point x="466" y="747"/>
      <point x="519" y="806"/>
      <point x="519" y="874" type="curve" smooth="yes"/>
      <point x="519" y="930"/>
      <point x="479" y="973"/>
      <point x="416" y="973" type="curve" smooth="yes"/>
      <point x="340" y="973"/>
      <point x="287" y="914"/>
      <point x="287" y="846" type="curve" smooth="yes"/>
      <point x="287" y="790"/>
      <point x="327" y="747"/>
      <point x="390" y="747" type="curve" smooth="yes"/>
    </contour>
    <contour>
      <point x="442" y="849"/>
      <point x="429" y="821"/>
      <point x="398" y="821" type="curve" smooth="yes"/>
      <point x="376" y="821"/>
      <point x="364" y="835"/>
      <point x="364" y="853" type="curve" smooth="yes"/>
      <point x="364" y="873"/>
      <point x="377" y="899"/>
      <point x="408" y="899" type="curve" smooth="yes"/>
      <point x="430" y="899"/>
      <point x="442" y="885"/>
      <point x="442" y="867" type="curve" smooth="yes"/>
    </contour>
  </outline>
</glyph>
<glyph name="slash.uc" format="2">
  <advance width="453"/>
  <outline>
    <contour>
      <point x="402" y="745" type="line"/>
      <point x="-95" y="-83" type="line"/>
      <point x="60" y="-83" type="line"/>
      <point x="557" y="745" type="line"/>
    </contour>
  </outline>
</glyph>
<glyph name="sterling.tab" format="2">
  <advance width="600"/>
  <outline>
    <contour>
      <point x="443" y="255" type="line"/>
      <point x="57" y="255" type="line"/>
      <point x="76" y="361" type="line"/>
      <point x="462" y="361" type="line"/>
    </contour>
    <contour>
      <point x="36" y="120" type="line" smooth="yes"/>
      <point x="123" y="120"/>
      <point x="164" y="196"/>
      <point x="164" y="262" type="curve" smooth="yes"/>
      <point x="164" y="322"/>
      <point x="126" y="374"/>
      <point x="126" y="453" type="curve" smooth="yes"/>
      <point x="126" y="563"/>
      <point x="201" y="712"/>
      <point x="392" y="712" type="curve" smooth="yes"/>
      <point x="529" y="712"/>
      <point x="597" y="633"/>
      <point x="597" y="541" type="curve" smooth="yes"/>
      <point x="597" y="514"/>
      <point x="590" y="477"/>
      <point x="574" y="450" type="curve"/>
      <point x="443" y="464" type="line"/>
      <point x="450" y="477"/>
      <point x="458" y="500"/>
      <point x="458" y="522" type="curve" smooth="yes"/>
      <point x="458" y="567"/>
      <point x="427" y="592"/>
      <point x="380" y="592" type="curve" smooth="yes"/>
      <point x="301" y="592"/>
      <point x="268" y="527"/>
      <point x="268" y="463" type="curve" smooth="yes"/>
      <point x="268" y="400"/>
      <point x="303" y="349"/>
      <point x="303" y="278" type="curve" smooth="yes"/>
      <point x="303" y="206"/>
      <point x="270" y="131"/>
      <point x="162" y="98" type="curve"/>
      <point x="147" y="120" type="line"/>
      <point x="533" y="120" type="line"/>
      <point x="512" y="0" type="line"/>
      <point x="0" y="0" type="line"/>
      <point x="21" y="120" type="line"/>
    </contour>
  </outline>
</glyph>
<glyph name="three.tab" format="2">
  <advance width="600"/>
  <outline>
    <contour>
      <point x="52" y="233" type="line"/>
      <point x="46" y="212"/>
      <point x="43" y="191"/>
      <point x="43" y="170" type="curve" smooth="yes"/>
      <point x="43" y="55"/>
      <point x="136" y="-12"/>
      <point x="280" y="-12" type="curve" smooth="yes"/>
      <point x="453" y="-12"/>
      <point x="557" y="99"/>
      <point x="557" y="224" type="curve" smooth="yes"/>
      <point x="557" y="300"/>
      <point x="511" y="350"/>
      <point x="435" y="367" type="curve"/>
      <point x="434" y="361" type="line"/>
      <point x="508" y="377"/>
      <point x="594" y="425"/>
      <point x="594" y="539" type="curve" smooth="yes"/>
      <point x="594" y="639"/>
      <point x="518" y="712"/>
      <point x="376" y="712" type="curve" smooth="yes"/>
      <point x="233" y="712"/>
      <point x="113" y="633"/>
      <point x="101" y="485" type="curve"/>
      <point x="246" y="495" type="line"/>
      <point x="249" y="554"/>
      <point x="293" y="597"/>
      <point x="360" y="597" type="curve" smooth="yes"/>
      <point x="419" y="597"/>
      <point x="450" y="566"/>
      <point x="450" y="521" type="curve" smooth="yes"/>
      <point x="450" y="468"/>
      <point x="416" y="422"/>
      <point x="338" y="422" type="curve" smooth="yes"/>
      <point x="281" y="422" type="line"/>
      <point x="260" y="303" type="line"/>
      <point x="318" y="303" type="line" smooth="yes"/>
      <point x="390" y="303"/>
      <point x="415" y="268"/>
      <point x="415" y="223" type="curve" smooth="yes"/>
      <point x="415" y="165"/>
      <point x="376" y="104"/>
      <point x="290" y="104" type="curve" smooth="yes"/>
      <point x="222" y="104"/>
      <point x="186" y="142"/>
      <point x="186" y="188" type="curve" smooth="yes"/>
      <point x="186" y="197"/>
      <point x="188" y="207"/>
      <point x="190" y="216" type="curve"/>
    </contour>
  </outline>
</glyph>
<glyph name="two.tab" format="2">
  <advance width="600"/>
  <outline>
    <contour>
      <point x="39" y="117" type="curve"/>
      <point x="18" y="0" type="line"/>
      <point x="502" y="0" type="line"/>
      <point x="523" y="120" type="line"/>
      <point x="127" y="120" type="line"/>
      <point x="149" y="59" type="line"/>
      <point x="420" y="242"/>
      <point x="588" y="360"/>
      <point x="588" y="524" type="curve" smooth="yes"/>
      <point x="588" y="624"/>
      <point x="522" y="712"/>
      <point x="373" y="712" type="curve" smooth="yes"/>
      <point x="211" y="712"/>
      <point x="101" y="605"/>
      <point x="101" y="475" type="curve" smooth="yes"/>
      <point x="101" y="459"/>
      <point x="103" y="440"/>
      <point x="110" y="422" type="curve"/>
      <point x="248" y="437" type="line"/>
      <point x="243" y="451"/>
      <point x="241" y="464"/>
      <point x="241" y="476" type="curve" smooth="yes"/>
      <point x="241" y="534"/>
      <point x="287" y="586"/>
      <point x="357" y="586" type="curve"/>
      <point x="417" y="586"/>
      <point x="443" y="552"/>
      <point x="443" y="505" type="curve" smooth="yes"/>
      <point x="443" y="398"/>
      <point x="306" y="316"/>
    </contour>
  </outline>
</glyph>
<glyph name="yen.tab" format="2">
  <advance width="600"/>
  <outline>
    <contour>
      <point x="369" y="386.0" type="line"/>
      <point x="232" y="700.0" type="line"/>
      <point x="84" y="700.0" type="line"/>
      <point x="244" y="338.0" type="line"/>
      <point x="184" y="0.0" type="line"/>
      <point x="328" y="0.0" type="line"/>
      <point x="388" y="338.0" type="line"/>
      <point x="676" y="700.0" type="line"/>
      <point x="525" y="700.0" type="line"/>
      <point x="276" y="386.0" type="line"/>
    </contour>
    <contour>
      <point x="72" y="316.0" type="line"/>
      <point x="552" y="316.0" type="line"/>
      <point x="569" y="414.0" type="line"/>
      <point x="89" y="414.0" type="line"/>
    </contour>
    <contour>
      <point x="45" y="163.0" type="line"/>
      <point x="525" y="163.0" type="line"/>
      <point x="542" y="261.0" type="line"/>
      <point x="62" y="261.0" type="line"/>
    </contour>
  </outline>
</glyph>
<glyph name="zero.num" format="2">
  <advance width="378"/>
  <outline>
    <contour>
      <point x="402.0" y="648.0"/>
      <point x="347" y="706"/>
      <point x="260" y="706" type="curve" smooth="yes"/>
      <point x="132" y="706"/>
      <point x="62.0" y="581"/>
      <point x="62" y="457" type="curve" smooth="yes"/>
      <point x="62" y="360.0"/>
      <point x="117" y="302"/>
      <point x="204" y="302" type="curve" smooth="yes"/>
      <point x="332.0" y="302.0"/>
      <point x="402.0" y="427"/>
      <point x="402" y="551" type="curve" smooth="yes"/>
    </contour>
    <contour>
      <point x="187.0" y="394.0"/>
      <point x="173" y="415"/>
      <point x="173" y="461" type="curve" smooth="yes"/>
      <point x="173.0" y="526.0"/>
      <point x="197" y="614.0"/>
      <point x="251" y="614" type="curve" smooth="yes"/>
      <point x="277.0" y="614.0"/>
      <point x="291" y="593"/>
      <point x="291" y="547" type="curve" smooth="yes"/>
      <point x="291.0" y="482.0"/>
      <point x="267" y="394.0"/>
      <point x="213" y="394" type="curve" smooth="yes"/>
    </contour>
  </outline>
</glyph>
